<svg width="28" height="29" viewBox="0 0 28 29" fill="none" xmlns="http://www.w3.org/2000/svg">
<g id="btn" clip-path="url(#clip0_1276_35601)">
<circle id="Ellipse 416" cx="14" cy="14.7441" r="14" fill="#B3B3B3"/>
<path id="Vector" d="M7.56704 14.1771C7.25268 14.4915 7.24935 15.0001 7.55956 15.3186L7.64583 15.4071C7.96132 15.731 8.4805 15.735 8.80097 15.4161L13.125 11.1129L13.125 20.9316C13.125 21.3804 13.4888 21.7441 13.9375 21.7441L14.0625 21.7441C14.5112 21.7441 14.875 21.3804 14.875 20.9316L14.875 11.1129L19.1762 15.4195C19.4937 15.7374 20.0089 15.7373 20.3263 15.4193L20.4267 15.3187C20.7434 15.0013 20.7431 14.4873 20.4261 14.1702L14 7.74414L7.56704 14.1771Z" fill="white"/>
</g>
<defs>
<clipPath id="clip0_1276_35601">
<rect width="28" height="28" fill="white" transform="translate(0 28.7441) rotate(-90)"/>
</clipPath>
</defs>
</svg>
