<svg width="22" height="21" viewBox="0 0 22 21" fill="none" xmlns="http://www.w3.org/2000/svg">
<path id="Vector" d="M20.4269 14.0603L14.1933 19.7751C13.0563 20.8164 11.2252 20.0106 11.2252 18.4699L11.2252 15.4115C-0.285826 15.4115 1.4851 1.24414 1.4851 1.24414C1.4851 1.24414 5.02695 10.0988 11.2252 10.0988L11.2252 7.04126C11.2252 5.50056 13.0572 4.69479 14.1924 5.73521L20.426 11.45C20.6069 11.6159 20.7514 11.8176 20.8502 12.0423C20.949 12.2669 21 12.5097 21 12.7552C21 13.0006 20.949 13.2434 20.8502 13.4681C20.7514 13.6927 20.6078 13.8944 20.4269 14.0603Z" stroke="#666666" stroke-width="1.5" stroke-linecap="round" stroke-linejoin="round"/>
</svg>
