<svg width="1920" height="539" viewBox="0 0 1920 539" fill="none" xmlns="http://www.w3.org/2000/svg">
<rect width="1920" height="539" fill="url(#paint0_linear_2376_83506)"/>
<rect width="165.044" height="61.9494" rx="13.8693" transform="matrix(-1 0 0 1 754.043 162.467)" fill="#0054F0"/>
<path d="M956.841 213.506C953.772 218.674 946.291 218.674 943.222 213.506L919.519 173.584C916.385 168.305 920.189 161.622 926.328 161.622L973.735 161.622C979.874 161.622 983.678 168.305 980.544 173.584L956.841 213.506Z" fill="#0049D0"/>
<rect width="302.158" height="113.415" rx="25.3914" transform="matrix(-1 0 0 1 1022.35 79.5225)" fill="#0049D1"/>
<path d="M761.664 114.227H919.091" stroke="#196AFF" stroke-width="4.2319" stroke-linecap="round"/>
<path d="M761.664 131.154H980.877" stroke="#196AFF" stroke-width="4.2319" stroke-linecap="round"/>
<path d="M761.664 148.082H980.877" stroke="#196AFF" stroke-width="4.2319" stroke-linecap="round"/>
<circle cx="20.3639" cy="20.3639" r="20.3639" transform="matrix(1 0 0 -1 1193.68 203.554)" fill="url(#paint1_linear_2376_83506)"/>
<circle cx="20.3639" cy="20.3639" r="20.3639" transform="matrix(1 0 0 -1 1060.99 203.554)" fill="url(#paint2_linear_2376_83506)"/>
<path fill-rule="evenodd" clip-rule="evenodd" d="M1228.32 291.633C1227.38 290.517 1227.53 288.852 1228.61 287.869C1236.41 280.775 1240.84 272.638 1240.84 263.987C1240.84 236.414 1195.84 214.062 1140.33 214.062C1084.82 214.062 1039.82 236.414 1039.82 263.987C1039.82 278.958 1053.09 292.39 1074.1 301.541C1075.44 302.122 1076.08 303.663 1075.53 305.008L1075.38 305.355C1074.31 307.94 1071.4 309.232 1068.77 308.293L1030.17 294.545C1027.55 293.614 1024.67 294.876 1023.57 297.426L1022.66 299.545C1021.98 301.136 1020.56 302.289 1018.86 302.628L1011.01 304.199C1009.39 304.523 1008.02 305.589 1007.3 307.076L968.149 388.539C967.858 389.143 967.685 389.784 967.65 390.453C966.307 416.847 980.176 463.059 1046.64 444.787C1047 444.688 1047.36 444.547 1047.69 444.375L1065.77 434.88C1069.27 433.043 1073.47 435.581 1073.47 439.533V533.245C1073.47 536.147 1075.82 538.5 1078.73 538.5H1225.87C1228.77 538.5 1231.13 536.147 1231.13 533.245V447.989C1231.13 443.425 1236.68 440.879 1240.44 443.471C1264.89 460.335 1305.84 471.105 1329.13 415.395C1329.87 413.617 1329.54 411.528 1328.3 410.056L1228.32 291.633Z" fill="url(#paint3_linear_2376_83506)"/>
<path d="M1127.99 224.574H1168.72V258.076C1168.72 269.323 1159.6 278.44 1148.36 278.44C1137.11 278.44 1127.99 269.323 1127.99 258.076V224.574Z" fill="#B2CDFF"/>
<circle cx="1148.36" cy="168.738" r="75.5437" fill="white"/>
<path d="M1362.14 256.407L1406.01 230.901C1409.34 228.96 1413.19 232.479 1411.56 235.977L1323.93 423.49C1323.32 424.785 1322.07 425.65 1320.64 425.753L1210.55 433.66C1207.6 433.872 1205.47 430.869 1206.66 428.152L1292.46 231.5C1293.33 229.494 1295.68 228.585 1297.67 229.476L1358.55 256.6C1359.71 257.115 1361.04 257.043 1362.14 256.407Z" fill="#B2CDFF"/>
<path d="M1376.16 390.771L1400.46 338.875C1402.87 332.306 1403.88 317.329 1388.64 309.972C1373.4 302.614 1360.39 316.541 1355.79 324.424L1322.95 396.683C1322.95 411.397 1332.58 413.324 1337.4 412.448L1376.16 390.771Z" fill="url(#paint4_linear_2376_83506)"/>
<path fill-rule="evenodd" clip-rule="evenodd" d="M1224.33 172.108C1221.97 171.72 1219.6 171.228 1217.23 170.629C1186.51 162.858 1164.05 139.093 1156.5 110.473C1156.23 111.884 1155.91 113.296 1155.55 114.708C1146.01 152.451 1109.83 176.428 1072.17 171.65C1071.72 164.036 1072.41 156.225 1074.38 148.437C1084.7 107.629 1126.15 82.9141 1166.96 93.2344C1203.19 102.398 1226.73 136.101 1224.33 172.108Z" fill="url(#paint5_linear_2376_83506)"/>
<ellipse cx="1146.9" cy="170.708" rx="5.91211" ry="7.88282" fill="#283A5C"/>
<ellipse cx="1174.49" cy="170.708" rx="5.91211" ry="7.88282" fill="#283A5C"/>
<path fill-rule="evenodd" clip-rule="evenodd" d="M1099.68 210.846L1094.26 206.107C1090.5 202.815 1085.19 201.944 1080.58 203.86L1037.16 221.871C1031.01 224.425 1027.74 231.182 1029.56 237.593L1038.84 270.283C1039.69 273.301 1039.44 276.527 1038.13 279.375L1030.97 294.879L1081.82 313.548L1081.17 315.322L1104.69 272.975C1105.88 270.838 1106.45 268.412 1106.33 265.97L1104.15 220.108C1103.98 216.541 1102.37 213.197 1099.68 210.846Z" fill="url(#paint6_linear_2376_83506)"/>
<path fill-rule="evenodd" clip-rule="evenodd" d="M1105 285.384C1120.16 285.384 1133.29 276.677 1139.66 263.989H1170.19C1176.56 276.677 1189.69 285.384 1204.85 285.384C1226.25 285.384 1243.61 268.032 1243.61 246.627C1243.61 232.216 1235.74 219.641 1224.07 212.963L1212.68 205.559C1207.25 201.027 1200.27 198.3 1192.65 198.3C1179.98 198.3 1169.06 205.847 1164.16 216.693H1145.69C1140.78 205.847 1129.87 198.3 1117.2 198.3C1109.58 198.3 1102.59 201.027 1097.17 205.559L1085.78 212.963C1074.11 219.641 1066.24 232.216 1066.24 246.627C1066.24 268.032 1083.59 285.384 1105 285.384Z" fill="#002872"/>
<circle cx="1104.34" cy="246.91" r="27.5899" fill="#0055F5"/>
<circle cx="1205.51" cy="246.91" r="27.5899" fill="#0055F5"/>
<path d="M1073 493H1232L1246.79 531.87C1248.1 535.312 1245.55 539 1241.87 539H1059.35C1055.48 539 1052.93 534.962 1054.6 531.471L1073 493Z" fill="#0049D0"/>
<defs>
<linearGradient id="paint0_linear_2376_83506" x1="1392.5" y1="15.6504" x2="1198.04" y2="616.092" gradientUnits="userSpaceOnUse">
<stop stop-color="#337AFF"/>
<stop offset="1" stop-color="#0059FF"/>
</linearGradient>
<linearGradient id="paint1_linear_2376_83506" x1="20.3639" y1="0" x2="20.3639" y2="40.7279" gradientUnits="userSpaceOnUse">
<stop stop-color="#E5EEFF"/>
<stop offset="1" stop-color="#CFE0FF"/>
</linearGradient>
<linearGradient id="paint2_linear_2376_83506" x1="20.3639" y1="0" x2="20.3639" y2="40.7279" gradientUnits="userSpaceOnUse">
<stop stop-color="#E5EEFF"/>
<stop offset="1" stop-color="#CFE0FF"/>
</linearGradient>
<linearGradient id="paint3_linear_2376_83506" x1="1148.54" y1="302.871" x2="1049.9" y2="485.104" gradientUnits="userSpaceOnUse">
<stop stop-color="#0059FF"/>
<stop offset="1" stop-color="#4C8BFF"/>
</linearGradient>
<linearGradient id="paint4_linear_2376_83506" x1="1362.4" y1="307.893" x2="1362.4" y2="338.239" gradientUnits="userSpaceOnUse">
<stop stop-color="#B2CDFF"/>
<stop offset="1" stop-color="white"/>
</linearGradient>
<linearGradient id="paint5_linear_2376_83506" x1="1168.53" y1="93.6334" x2="1093.25" y2="112.464" gradientUnits="userSpaceOnUse">
<stop stop-color="#669BFF"/>
<stop offset="1" stop-color="#99BDFF"/>
</linearGradient>
<linearGradient id="paint6_linear_2376_83506" x1="1067.7" y1="202.856" x2="1059.56" y2="238.904" gradientUnits="userSpaceOnUse">
<stop stop-color="#B2CDFF"/>
<stop offset="1" stop-color="white"/>
</linearGradient>
</defs>
</svg>
