<svg width="230" height="230" viewBox="0 0 230 230" fill="none" xmlns="http://www.w3.org/2000/svg">
<path d="M147.131 40.1409C147.737 37.8788 150.062 36.5363 152.324 37.1424C154.587 37.7486 155.929 40.0738 155.323 42.3359L153.128 50.5279L144.936 48.3329L147.131 40.1409Z" fill="#283A5C"/>
<circle cx="115.557" cy="174.359" r="20.1422" transform="rotate(15 115.557 174.359)" fill="url(#paint0_linear_1533_32003)"/>
<path fill-rule="evenodd" clip-rule="evenodd" d="M149.523 47.4203C124.29 40.6592 98.0454 54.1488 88.8565 78.6022L74.4609 116.912C73.4419 119.623 74.9835 122.623 77.7816 123.372L173.87 149.119C176.678 149.871 179.519 148.031 179.98 145.161L186.511 104.515C190.64 78.8159 174.665 54.157 149.523 47.4203ZM67.8195 120.705C63.8961 119.653 59.8633 121.982 58.812 125.905L53.1015 147.217C52.0503 151.141 54.3786 155.173 58.302 156.225L174.333 187.315C178.257 188.366 182.29 186.038 183.341 182.115L189.051 160.803C190.103 156.879 187.774 152.847 183.851 151.795L67.8195 120.705Z" fill="url(#paint1_linear_1533_32003)"/>
<path d="M88.9869 78.114C98.0449 53.93 123.987 40.5783 148.932 47.2622V47.2622C173.788 53.9223 189.57 78.3137 185.459 103.716L177.935 150.209L72.5597 121.973L88.9869 78.114Z" fill="url(#paint2_linear_1533_32003)"/>
<ellipse cx="43.8054" cy="72.0817" rx="28.8054" ry="21.4508" fill="#283A5C"/>
<path d="M54.4945 98.563C53.5445 100.163 51.2285 100.163 50.2786 98.563L42.9405 86.2042C41.9702 84.5701 43.148 82.5011 45.0485 82.5011L59.7246 82.5011C61.6251 82.5011 62.8028 84.5701 61.8325 86.2042L54.4945 98.563Z" fill="#283A5C"/>
<circle cx="32.1605" cy="72.6937" r="2.45152" fill="white"/>
<circle cx="43.1918" cy="72.6937" r="2.45152" fill="white"/>
<circle cx="54.223" cy="72.6937" r="2.45152" fill="white"/>
<defs>
<linearGradient id="paint0_linear_1533_32003" x1="115.557" y1="154.216" x2="81.9172" y2="184.531" gradientUnits="userSpaceOnUse">
<stop stop-color="#7FACFF"/>
<stop offset="1" stop-color="#CCDEFF"/>
</linearGradient>
<linearGradient id="paint1_linear_1533_32003" x1="172.258" y1="107.445" x2="73.1864" y2="155.136" gradientUnits="userSpaceOnUse">
<stop stop-color="#196AFF"/>
<stop offset="1" stop-color="#337AFF"/>
</linearGradient>
<linearGradient id="paint2_linear_1533_32003" x1="178.591" y1="62.0895" x2="60.6672" y2="113.821" gradientUnits="userSpaceOnUse">
<stop stop-color="#86DBF6" stop-opacity="0"/>
<stop offset="1" stop-color="#659BFF"/>
</linearGradient>
</defs>
</svg>
