<svg width="24" height="24" viewBox="0 0 24 24" fill="none" xmlns="http://www.w3.org/2000/svg">
<path fill-rule="evenodd" clip-rule="evenodd" d="M11.2803 5.21967C11.5732 5.51256 11.5732 5.98744 11.2803 6.28033L5.81066 11.75L11.2803 17.2197C11.5732 17.5126 11.5732 17.9874 11.2803 18.2803C10.9874 18.5732 10.5126 18.5732 10.2197 18.2803L4.21967 12.2803C3.92678 11.9874 3.92678 11.5126 4.21967 11.2197L10.2197 5.21967C10.5126 4.92678 10.9874 4.92678 11.2803 5.21967Z" fill="#999999"/>
<path fill-rule="evenodd" clip-rule="evenodd" d="M17.7803 5.21967C18.0732 5.51256 18.0732 5.98744 17.7803 6.28033L12.3107 11.75L17.7803 17.2197C18.0732 17.5126 18.0732 17.9874 17.7803 18.2803C17.4874 18.5732 17.0126 18.5732 16.7197 18.2803L10.7197 12.2803C10.4268 11.9874 10.4268 11.5126 10.7197 11.2197L16.7197 5.21967C17.0126 4.92678 17.4874 4.92678 17.7803 5.21967Z" fill="#999999"/>
</svg>
