<svg width="24" height="24" viewBox="0 0 24 24" fill="none" xmlns="http://www.w3.org/2000/svg">
<path fill-rule="evenodd" clip-rule="evenodd" d="M12.7197 5.21967C12.4268 5.51256 12.4268 5.98744 12.7197 6.28033L18.1893 11.75L12.7197 17.2197C12.4268 17.5126 12.4268 17.9874 12.7197 18.2803C13.0126 18.5732 13.4874 18.5732 13.7803 18.2803L19.7803 12.2803C20.0732 11.9874 20.0732 11.5126 19.7803 11.2197L13.7803 5.21967C13.4874 4.92678 13.0126 4.92678 12.7197 5.21967Z" fill="#999999"/>
<path fill-rule="evenodd" clip-rule="evenodd" d="M6.21967 5.21967C5.92678 5.51256 5.92678 5.98744 6.21967 6.28033L11.6893 11.75L6.21967 17.2197C5.92678 17.5126 5.92678 17.9874 6.21967 18.2803C6.51256 18.5732 6.98744 18.5732 7.28033 18.2803L13.2803 12.2803C13.5732 11.9874 13.5732 11.5126 13.2803 11.2197L7.28033 5.21967C6.98744 4.92678 6.51256 4.92678 6.21967 5.21967Z" fill="#999999"/>
</svg>
