<svg width="59" height="59" viewBox="0 0 59 59" fill="none" xmlns="http://www.w3.org/2000/svg">
<rect x="1.19922" y="0.75" width="56.7439" height="56.7439" rx="28.372" fill="white"/>
<rect x="1.19922" y="0.75" width="56.7439" height="56.7439" rx="28.372" stroke="#E6E6E6" stroke-width="1.5"/>
<path d="M24.0922 45.1785C27.0691 45.1785 29.4851 42.7624 29.4851 39.7855V34.3926H24.0922C21.1153 34.3926 18.6992 36.8086 18.6992 39.7855C18.6992 42.7624 21.1153 45.1785 24.0922 45.1785Z" fill="#0ACF83"/>
<path d="M18.6992 29.0004C18.6992 26.0235 21.1153 23.6074 24.0922 23.6074H29.4851V34.3933H24.0922C21.1153 34.3933 18.6992 31.9773 18.6992 29.0004Z" fill="#A259FF"/>
<path d="M18.6992 18.2142C18.6992 15.2373 21.1153 12.8213 24.0922 12.8213H29.4851V23.6072H24.0922C21.1153 23.6072 18.6992 21.1911 18.6992 18.2142Z" fill="#F24E1E"/>
<path d="M29.4883 12.8213H34.8812C37.8582 12.8213 40.2742 15.2373 40.2742 18.2142C40.2742 21.1911 37.8582 23.6072 34.8812 23.6072H29.4883V12.8213Z" fill="#FF7262"/>
<path d="M40.2742 29.0004C40.2742 31.9773 37.8582 34.3933 34.8812 34.3933C31.9043 34.3933 29.4883 31.9773 29.4883 29.0004C29.4883 26.0235 31.9043 23.6074 34.8812 23.6074C37.8582 23.6074 40.2742 26.0235 40.2742 29.0004Z" fill="#1ABCFE"/>
</svg>
