<svg width="60" height="59" viewBox="0 0 60 59" fill="none" xmlns="http://www.w3.org/2000/svg">
<rect x="1.65625" y="0.882812" width="56.7439" height="56.7439" rx="28.372" fill="white"/>
<rect x="1.65625" y="0.882812" width="56.7439" height="56.7439" rx="28.372" stroke="#E6E6E6" stroke-width="1.5"/>
<path d="M25.871 37.9665C25.871 37.9665 24.6346 38.6855 26.751 38.9288C29.3152 39.2213 30.6256 39.1795 33.4513 38.6446C33.4513 38.6446 34.1942 39.1104 35.2316 39.5139C28.8973 42.2287 20.8957 39.3566 25.871 37.9665V37.9665ZM25.097 34.4238C25.097 34.4238 23.7101 35.4504 25.8282 35.6695C28.5673 35.952 30.7303 35.9752 34.4733 35.2545C34.4733 35.2545 34.991 35.7793 35.8051 36.0663C28.1464 38.3058 19.6161 36.2429 25.097 34.4238" fill="#5382A1"/>
<path d="M31.6191 28.4147C33.1799 30.2116 31.209 31.8286 31.209 31.8286C31.209 31.8286 35.1721 29.7828 33.352 27.2208C31.6522 24.8318 30.3485 23.6446 37.4057 19.5518C37.4057 19.5518 26.3283 22.3183 31.6191 28.4146" fill="#E76F00"/>
<path d="M40.0023 40.5857C40.0023 40.5857 40.9173 41.3396 38.9945 41.9229C35.3382 43.0305 23.7767 43.365 20.5649 41.967C19.4104 41.4648 21.5755 40.7678 22.2565 40.6215C22.9668 40.4674 23.3727 40.4962 23.3727 40.4962C22.0887 39.5917 15.0736 42.2722 19.8094 43.0398C32.7245 45.1343 43.3522 42.0968 40.0023 40.5857ZM26.4679 30.7521C26.4679 30.7521 20.587 32.1489 24.3854 32.6561C25.9891 32.8708 29.1862 32.8223 32.1642 32.5727C34.598 32.3675 37.0419 31.9309 37.0419 31.9309C37.0419 31.9309 36.1837 32.2985 35.5628 32.7224C29.5908 34.2931 18.054 33.5624 21.3753 31.9558C24.1841 30.598 26.468 30.7521 26.468 30.7521H26.4679ZM37.0176 36.6489C43.0885 33.4943 40.2816 30.4628 38.3224 30.8712C37.8421 30.9711 37.6281 31.0577 37.6281 31.0577C37.6281 31.0577 37.8063 30.7785 38.1468 30.6576C42.0226 29.2949 45.0035 34.6765 36.8956 36.8079C36.8956 36.808 36.9896 36.7241 37.0176 36.6489" fill="#5382A1"/>
<path d="M33.3548 12.9425C33.3548 12.9425 36.7169 16.3058 30.166 21.4775C24.9128 25.6261 28.9681 27.9915 30.1638 30.6941C27.0974 27.9275 24.8471 25.492 26.3568 23.2254C28.5726 19.8979 34.7113 18.2847 33.3548 12.9424" fill="#E76F00"/>
<path d="M27.0668 45.1996C32.8941 45.5726 41.8424 44.9926 42.0544 42.2354C42.0544 42.2354 41.647 43.2807 37.2385 44.1108C32.2648 45.0467 26.1305 44.9375 22.4922 44.3376C22.4923 44.3376 23.237 44.954 27.0669 45.1996" fill="#5382A1"/>
</svg>
