<svg width="109" height="99" viewBox="0 0 109 99" fill="none" xmlns="http://www.w3.org/2000/svg">
<g clip-path="url(#clip0_1963_43246)">
<path d="M31.0401 73.2003C30.7991 72.8387 30.5843 72.545 30.4309 72.3434C30.3542 72.2426 30.2928 72.1615 30.2534 72.1089C30.2161 72.0519 30.1986 72.0234 30.1986 72.0234C30.1986 72.0234 30.124 72.1484 30.021 72.3653C29.9158 72.5801 29.7822 72.8913 29.6331 73.2792C29.3482 74.0529 29.0414 75.1268 28.9581 76.3256C28.9055 76.9327 28.9691 77.5222 29.0874 78.1315C29.2145 78.7364 29.4183 79.3391 29.7252 79.9089C29.8019 80.0514 29.8852 80.1894 29.9706 80.3297C30.0627 80.4634 30.1701 80.5883 30.2797 80.7132C30.501 80.9653 30.7487 81.202 31.027 81.4211C31.5771 81.8616 32.2455 82.2276 33.0279 82.4863C34.0208 81.6403 34.2421 80.5401 34.0777 79.407C33.9901 78.8394 33.8082 78.263 33.5671 77.7019C33.5057 77.5573 33.4378 77.4192 33.3698 77.2768C33.3107 77.1343 33.2515 76.9875 33.1836 76.845C33.0564 76.5601 32.9162 76.2796 32.765 76.0056C32.4691 75.4599 32.1491 74.9471 31.8357 74.4846C31.5639 73.9937 31.2856 73.562 31.0401 73.2003Z" fill="#FBDE74"/>
<path d="M26.6558 70.8728L26.555 70.4476C26.4148 69.8866 26.2504 69.354 26.0729 68.8697C25.9874 68.6264 25.8866 68.4007 25.8099 68.1815C25.7397 67.958 25.6718 67.7476 25.606 67.5569C25.3321 66.7986 25.1042 66.3252 25.1042 66.3252C25.1042 66.3252 24.7338 66.7438 24.267 67.4363C24.0281 67.7848 23.7717 68.2034 23.524 68.6768C23.2829 69.148 23.0287 69.6893 22.884 70.2329C22.7284 70.783 22.6145 71.3659 22.5838 71.962C22.5685 72.2601 22.5706 72.5604 22.5969 72.8628C22.6101 73.0118 22.6276 73.1652 22.6583 73.3121C22.6912 73.4567 22.7328 73.5992 22.7788 73.7395C22.9651 74.3093 23.261 74.8594 23.6752 75.3613C23.89 75.6067 24.1114 75.8566 24.405 76.0582C24.6943 76.2642 25.0209 76.4527 25.3803 76.6171C26.5199 75.9289 26.9276 74.9251 27.0109 73.8425C27.0657 73.2858 27.0372 72.7116 26.9473 72.1396C26.9013 71.8525 26.8421 71.5676 26.7676 71.2892C26.7325 71.1468 26.6931 71.0087 26.6558 70.8728Z" fill="#FBDE74"/>
<path d="M18.3869 69.4879C18.6082 69.729 18.8734 69.9547 19.1693 70.1673C20.4075 69.6829 21.0672 68.7866 21.396 67.7762C21.4727 67.5242 21.5581 67.2546 21.6173 66.9829C21.6765 66.7089 21.7225 66.4328 21.751 66.1544C21.8168 65.5956 21.8168 65.0345 21.7905 64.4954C21.8036 63.9387 21.7817 63.4039 21.7357 62.9152C21.6853 62.4265 21.6085 61.9882 21.591 61.5937C21.5231 60.8222 21.4135 60.3291 21.4135 60.3291C21.4135 60.3291 20.962 60.6732 20.3528 61.2715C20.0393 61.5718 19.6931 61.9356 19.3468 62.352C19.1737 62.5602 18.9874 62.7859 18.8296 63.0138C18.6696 63.244 18.514 63.4828 18.3693 63.7349C18.0844 64.2346 17.828 64.7759 17.6505 65.3391C17.5584 65.6219 17.4861 65.9046 17.4335 66.1983C17.3984 66.481 17.3941 66.7659 17.4072 67.053C17.4445 67.6206 17.576 68.1883 17.8455 68.7296C17.9683 69.0035 18.1633 69.2512 18.3869 69.4901V69.4879Z" fill="#FBDE74"/>
<path d="M13.7799 62.3427C13.9355 62.6057 14.1262 62.8577 14.3498 63.1053C15.6516 62.8314 16.5019 62.0775 17.0608 61.1636C17.1353 61.0474 17.1989 60.9313 17.2646 60.8129C17.3304 60.6902 17.3939 60.5653 17.4597 60.4403C17.5802 60.1883 17.6898 59.9297 17.7862 59.6645C17.9769 59.1363 18.1128 58.5972 18.2092 58.0734C18.3407 57.5364 18.4393 57.0126 18.5051 56.5305C18.5401 56.2872 18.5599 56.0571 18.5818 55.8379C18.6037 55.621 18.6168 55.4171 18.6475 55.2221C18.7418 54.4528 18.7505 53.9531 18.7505 53.9531C18.7505 53.9531 18.2443 54.2293 17.5298 54.7333C17.1704 54.9854 16.7627 55.29 16.3376 55.6494C15.9036 56.0067 15.5091 56.4012 15.119 56.8461C14.7245 57.2888 14.3629 57.7731 14.0627 58.2882C13.9136 58.5446 13.7668 58.8098 13.666 59.0771C13.5717 59.3423 13.4928 59.6097 13.4402 59.888C13.3372 60.4316 13.3285 60.9926 13.4534 61.5449C13.5016 61.8211 13.6309 62.0862 13.7799 62.347V62.3427Z" fill="#FBDE74"/>
<path d="M14.8372 53.5856C15.1923 53.1823 15.5473 52.7155 15.8344 52.2268C16.1215 51.738 16.3626 51.2274 16.562 50.7255C16.9982 49.7064 17.3225 48.707 17.5 47.9641C17.7126 47.2167 17.8222 46.7148 17.8222 46.7148C17.8222 46.7148 17.2831 46.9406 16.5072 47.3548C16.1259 47.563 15.6613 47.8194 15.2098 48.1197C14.7561 48.4221 14.2871 48.764 13.8269 49.1497C12.9174 49.9212 12.0429 50.8614 11.6375 51.8827C11.4271 52.3955 11.3043 52.9347 11.3087 53.476C11.3219 54.0151 11.5081 54.5587 11.8325 55.089C13.1343 55.0036 14.1052 54.4009 14.8372 53.5856Z" fill="#FBDE74"/>
<path d="M13.1332 46.6615C13.3414 46.484 13.5386 46.2912 13.7315 46.0851C13.9309 45.8813 14.1216 45.66 14.2991 45.4364C14.6542 44.985 14.9719 44.5072 15.2503 44.0272C15.3862 43.7883 15.5133 43.5494 15.6338 43.3106C15.7653 43.0695 15.8815 42.8306 15.9932 42.5983C16.2102 42.1337 16.3921 41.6975 16.5368 41.3249C16.8151 40.5776 16.9795 40.0889 16.9795 40.0889C16.9795 40.0889 16.4294 40.2752 15.6426 40.6346C14.858 40.9984 13.8257 41.5331 12.8329 42.2191C12.342 42.5654 11.8555 42.9467 11.4215 43.3588C11.0051 43.7686 10.626 44.2157 10.3367 44.6891C10.0518 45.1603 9.83478 45.6644 9.76026 46.186C9.70328 46.7032 9.76465 47.2467 9.986 47.7924C11.244 47.8538 12.2828 47.376 13.1332 46.6615Z" fill="#FBDE74"/>
<path d="M9.43423 40.0303C10.6352 40.1771 11.6916 39.7914 12.5924 39.1449C13.0482 38.8227 13.458 38.437 13.835 38.0205C14.2317 37.6085 14.5911 37.1636 14.9001 36.7187C15.2267 36.2782 15.4875 35.8202 15.7571 35.4147C16.0201 35.0027 16.2414 34.6213 16.4211 34.2926C16.5964 33.9639 16.7301 33.6899 16.8266 33.497C16.9208 33.3108 16.9756 33.2012 16.9756 33.2012C16.9756 33.2012 16.8441 33.2319 16.603 33.2932C16.3598 33.3546 16.0332 33.4554 15.6343 33.5935C14.841 33.8609 13.7934 34.2794 12.7611 34.858C12.5047 35.0005 12.2461 35.1539 11.9962 35.3183C11.7508 35.4827 11.5207 35.6558 11.2905 35.8421C10.8456 36.2103 10.4358 36.6179 10.1027 37.054C9.42108 37.9263 9.14931 38.9454 9.43423 40.0303Z" fill="#FBDE74"/>
<path d="M13.4621 30.9351C14.3716 30.3982 15.2658 29.6574 15.9825 28.9035C16.1644 28.715 16.3288 28.5222 16.4931 28.3381C16.6706 28.1627 16.835 27.9808 16.9928 27.8099C17.2996 27.4636 17.5626 27.1392 17.7818 26.8565C17.99 26.576 18.1807 26.3503 18.31 26.1903C18.4349 26.0325 18.505 25.9404 18.505 25.9404C18.505 25.9404 17.9681 25.9843 17.1484 26.1355C16.3331 26.2801 15.2921 26.5541 14.2116 26.9793C13.6835 27.194 13.1378 27.4439 12.6424 27.7419C12.1647 28.0444 11.7154 28.3863 11.3428 28.7764C11.1543 28.9671 10.9856 29.1687 10.8409 29.3791C10.6897 29.5939 10.5626 29.813 10.4837 30.0453C10.3106 30.51 10.2492 31.0118 10.3303 31.5334C11.4677 31.757 12.5241 31.4633 13.4621 30.9351Z" fill="#FBDE74"/>
<path d="M20.8822 19.7643C20.4767 19.7753 20.0077 19.8016 19.4861 19.852C18.9645 19.9002 18.4407 19.9901 17.8862 20.1106C17.3362 20.2311 16.7729 20.3911 16.2294 20.5928C15.9576 20.6958 15.6924 20.8075 15.4382 20.9303C15.184 21.0596 14.9604 21.1998 14.7435 21.3532C13.88 21.9691 13.1765 22.7712 13.1523 23.7903C14.1824 24.1607 15.2366 24.0292 16.225 23.6786C17.266 23.3367 18.2281 22.7668 19.0741 22.1751C19.9836 21.6053 20.7178 20.9938 21.2811 20.538C21.8619 20.0887 22.2059 19.7753 22.2059 19.7753C22.2059 19.7753 21.6821 19.7402 20.8822 19.7643Z" fill="#FBDE74"/>
<path d="M26.0234 13.8163C25.2432 13.7462 24.1671 13.6958 23.0757 13.7988C21.9733 13.8974 20.7811 14.1188 19.7839 14.5658C18.8261 15.0327 18.0065 15.7033 17.6777 16.6413C18.1139 16.8934 18.5916 17.027 19.0826 17.0774C19.5888 17.13 20.1126 17.0972 20.6386 17.0073C21.1624 16.9131 21.6928 16.764 22.2056 16.58C22.7207 16.3959 23.205 16.1767 23.7157 15.9553C24.7172 15.5104 25.572 15.002 26.2229 14.6206C26.8891 14.2415 27.299 13.9675 27.299 13.9675C27.299 13.9675 26.8037 13.8799 26.0234 13.8163Z" fill="#FBDE74"/>
<path d="M25.2661 8.31894C24.3237 8.76823 23.5172 9.40599 23.1797 10.3111C24.8146 11.2996 27.1641 10.5632 29.0379 9.63173C30 9.16929 30.8876 8.65865 31.5122 8.25539C32.1412 7.85432 32.5226 7.56283 32.5226 7.56283C32.5226 7.56283 30.6071 7.30422 28.4418 7.52996C27.3591 7.64393 26.1976 7.86747 25.2661 8.31894Z" fill="#FBDE74"/>
<path d="M76.4154 82.4904C77.2 82.2296 77.8685 81.8614 78.4186 81.4231C78.6969 81.2039 78.9424 80.9672 79.1637 80.7152C79.2733 80.5924 79.3807 80.4653 79.4706 80.3316C79.5626 80.1914 79.6415 80.0533 79.7248 79.9109C80.0251 79.341 80.2311 78.7383 80.356 78.1334C80.4721 77.5242 80.5423 76.9346 80.4853 76.3275C80.4042 75.1309 80.0974 74.0548 79.8103 73.2834C79.6656 72.8933 79.5275 72.5799 79.4289 72.3673C79.3193 72.1503 79.2514 72.0254 79.2514 72.0254C79.2514 72.0254 79.2295 72.0539 79.1878 72.1131C79.1506 72.1635 79.0914 72.2446 79.0103 72.3454C78.8613 72.547 78.6465 72.8385 78.4054 73.2023C78.1578 73.5639 77.886 73.9979 77.6077 74.4866C77.2987 74.949 76.9743 75.4619 76.6806 76.0076C76.5338 76.2815 76.3891 76.5621 76.2598 76.8492C76.1985 76.9916 76.1327 77.1341 76.0736 77.2787C76.0078 77.4212 75.9421 77.5592 75.8785 77.7039C75.633 78.2671 75.4511 78.8413 75.37 79.409C75.2057 80.542 75.4226 81.6444 76.4154 82.4904Z" fill="#FBDE74"/>
<path d="M85.1808 67.4405C84.7118 66.7457 84.3392 66.3271 84.3392 66.3271C84.3392 66.3271 84.1091 66.8005 83.8417 67.5588C83.7694 67.7495 83.7014 67.9599 83.6335 68.1835C83.5546 68.4048 83.456 68.6284 83.3727 68.8716C83.1951 69.356 83.0242 69.8907 82.8861 70.4496L82.7875 70.8748C82.7481 71.0128 82.7086 71.1487 82.6736 71.2912C82.6012 71.5673 82.5442 71.8522 82.5004 72.1415C82.4084 72.7135 82.3799 73.2877 82.4325 73.8444C82.5136 74.9293 82.9212 75.9308 84.0652 76.619C84.4203 76.4546 84.7468 76.2662 85.0405 76.0602C85.332 75.8563 85.5577 75.6065 85.7637 75.3654C86.1867 74.8635 86.4804 74.3134 86.6689 73.7414C86.7105 73.6033 86.7544 73.4609 86.7872 73.314C86.8179 73.1694 86.8311 73.0138 86.8464 72.8648C86.8749 72.5623 86.8749 72.2621 86.8574 71.964C86.8267 71.3679 86.7193 70.7849 86.5593 70.2348C86.4103 69.6935 86.1604 69.15 85.9172 68.6788C85.6695 68.2054 85.4131 67.7868 85.1808 67.4405Z" fill="#FBDE74"/>
<path d="M91.0724 63.7349C90.9299 63.4828 90.7743 63.244 90.6165 63.016C90.4565 62.7859 90.2746 62.5602 90.1015 62.352C89.7508 61.9356 89.4045 61.5718 89.0955 61.2715C88.4841 60.6732 88.0304 60.3291 88.0304 60.3291C88.0304 60.3291 87.9252 60.8222 87.8507 61.5937C87.8331 61.9882 87.7564 62.4265 87.7126 62.9152C87.6644 63.4061 87.6381 63.9387 87.6512 64.4954C87.6293 65.0389 87.6249 65.5934 87.6907 66.1544C87.7214 66.4306 87.7696 66.7089 87.8288 66.9829C87.8901 67.259 87.9668 67.5242 88.0457 67.7762C88.3767 68.7866 89.0363 69.6829 90.279 70.1673C90.5749 69.9569 90.8335 69.7312 91.0548 69.4901C91.2806 69.249 91.4756 68.9992 91.5984 68.7274C91.8657 68.1883 92.0038 67.6206 92.0345 67.0508C92.052 66.7659 92.0433 66.4788 92.0082 66.1961C91.9578 65.9068 91.8855 65.6197 91.7956 65.337C91.6137 64.7737 91.3617 64.2368 91.0724 63.7349Z" fill="#FBDE74"/>
<path d="M92.3809 61.1662C92.9398 62.0801 93.7923 62.8341 95.0898 63.1058C95.3221 62.8582 95.5084 62.6039 95.664 62.3431C95.8086 62.0801 95.9401 61.8171 95.9905 61.541C96.1132 60.9909 96.1089 60.4277 96.0059 59.8841C95.9489 59.6058 95.8765 59.3362 95.7757 59.0732C95.6771 58.8059 95.5303 58.5407 95.3812 58.2843C95.081 57.7714 94.7172 57.2849 94.3293 56.8444C93.9326 56.3973 93.5381 56.0028 93.1107 55.6455C92.6855 55.2861 92.2735 54.9815 91.9119 54.7316C91.1974 54.2276 90.6934 53.9492 90.6934 53.9492C90.6934 53.9492 90.6977 54.4489 90.7986 55.2182C90.8292 55.4132 90.8424 55.617 90.8599 55.834C90.8796 56.0532 90.906 56.2855 90.9388 56.5266C91.0024 57.0087 91.1076 57.5369 91.2369 58.0695C91.3311 58.5933 91.467 59.1346 91.6577 59.6606C91.7541 59.9258 91.8615 60.1844 91.9864 60.4364C92.0522 60.5635 92.1135 60.6885 92.1815 60.809C92.245 60.9273 92.313 61.0457 92.3809 61.1619V61.1662Z" fill="#FBDE74"/>
<path d="M98.1339 53.476C98.1426 52.9347 98.0155 52.3977 97.8051 51.8849C97.4019 50.8614 96.5274 49.9212 95.6157 49.1497C95.162 48.7662 94.6886 48.4221 94.2328 48.1219C93.7813 47.8194 93.3233 47.5652 92.9354 47.3548C92.1595 46.9406 91.627 46.7148 91.627 46.7148C91.627 46.7148 91.7256 47.2167 91.9491 47.9641C92.1266 48.707 92.4466 49.7064 92.8806 50.7255C93.0778 51.2274 93.3233 51.738 93.6126 52.2268C93.8931 52.7155 94.2503 53.1845 94.6054 53.5878C95.3439 54.3987 96.3126 55.0036 97.6145 55.089C97.9344 54.5587 98.1163 54.0151 98.1339 53.476Z" fill="#FBDE74"/>
<path d="M99.6814 46.1857C99.6091 45.6641 99.3921 45.16 99.105 44.6888C98.8157 44.2155 98.4431 43.7706 98.0201 43.3629C97.5884 42.9509 97.1018 42.5674 96.6087 42.2211C95.6203 41.5373 94.5881 41.0003 93.8035 40.6365C93.0145 40.2749 92.4688 40.0908 92.4688 40.0908C92.4688 40.0908 92.6287 40.5796 92.9093 41.3291C93.0539 41.7017 93.2314 42.1356 93.4528 42.598C93.5602 42.8304 93.6785 43.0692 93.8078 43.3103C93.9284 43.5492 94.0555 43.7881 94.1936 44.0292C94.4719 44.5048 94.7831 44.9847 95.1491 45.4362C95.3222 45.6597 95.5173 45.8811 95.7124 46.0849C95.9008 46.2909 96.1003 46.4838 96.3129 46.6635C97.1632 47.3758 98.1998 47.8535 99.4578 47.7922C99.677 47.2465 99.7384 46.7029 99.6814 46.1857Z" fill="#FBDE74"/>
<path d="M99.3395 37.054C99.0086 36.6179 98.6031 36.2103 98.1516 35.8421C97.9259 35.6602 97.6914 35.4827 97.4503 35.3183C97.1983 35.1561 96.9375 35.0005 96.6832 34.858C95.6532 34.2816 94.6012 33.8652 93.8078 33.5935C93.4133 33.4576 93.0824 33.3546 92.8413 33.2954C92.5981 33.2297 92.4688 33.2012 92.4688 33.2012C92.4688 33.2012 92.5192 33.3086 92.62 33.497C92.7098 33.6899 92.8457 33.9639 93.0232 34.2926C93.2008 34.6213 93.4221 35.0049 93.6829 35.4147C93.9547 35.8202 94.2111 36.2782 94.5355 36.7187C94.8576 37.1658 95.2127 37.6085 95.6072 38.0205C95.9885 38.437 96.3961 38.8249 96.852 39.1449C97.7528 39.7914 98.8113 40.1793 100.01 40.0303C100.293 38.9454 100.019 37.9263 99.3395 37.054Z" fill="#FBDE74"/>
<path d="M98.6036 29.3791C98.4589 29.1687 98.2858 28.9671 98.0995 28.7764C97.7247 28.3885 97.2798 28.0466 96.7999 27.7419C96.3089 27.4439 95.7632 27.194 95.2307 26.9793C94.1524 26.5541 93.1157 26.2823 92.2961 26.1355C91.4764 25.9865 90.9395 25.9404 90.9395 25.9404C90.9395 25.9404 91.0074 26.0325 91.1345 26.1903C91.2638 26.3481 91.4545 26.576 91.6627 26.8587C91.8797 27.1392 92.1448 27.4636 92.4561 27.8099C92.6095 27.9808 92.7782 28.1627 92.9514 28.3381C93.1157 28.5222 93.2823 28.7172 93.462 28.9035C94.1809 29.6574 95.0707 30.3982 95.9802 30.9351C96.916 31.4633 97.9746 31.757 99.1186 31.5356C99.1953 31.0118 99.1317 30.51 98.963 30.0475C98.8819 29.8152 98.7548 29.5961 98.6036 29.3791Z" fill="#FBDE74"/>
<path d="M94.7071 21.3534C94.4857 21.1999 94.2622 21.0597 94.008 20.9304C93.7515 20.8076 93.4842 20.6959 93.2146 20.5929C92.6733 20.389 92.11 20.2312 91.5577 20.1107C91.0033 19.9902 90.4795 19.9025 89.96 19.8521C89.4428 19.8017 88.9694 19.7754 88.564 19.7666C87.7618 19.7403 87.2402 19.7754 87.2402 19.7754C87.2402 19.7754 87.5887 20.0932 88.1673 20.5381C88.7327 20.9939 89.4647 21.6032 90.3699 22.1774C91.2158 22.7648 92.1824 23.3346 93.2234 23.6787C94.2074 24.0293 95.2594 24.163 96.296 23.7926C96.2653 22.7713 95.564 21.9692 94.7071 21.3534Z" fill="#FBDE74"/>
<path d="M89.6633 14.5655C88.6617 14.1184 87.4738 13.897 86.3737 13.8006C85.28 13.6998 84.2018 13.7524 83.4193 13.8159C82.6457 13.8795 82.1504 13.9672 82.1504 13.9672C82.1504 13.9672 82.5536 14.2433 83.2199 14.6203C83.8752 15.0016 84.7299 15.5145 85.7271 15.955C86.2378 16.1763 86.7287 16.3977 87.2393 16.5796C87.7522 16.7659 88.2804 16.9127 88.8085 17.0069C89.328 17.0946 89.8583 17.1319 90.3602 17.0771C90.8555 17.0267 91.3289 16.8952 91.7716 16.6409C91.4363 15.7029 90.6166 15.0323 89.6633 14.5655Z" fill="#FBDE74"/>
<path d="M80.4087 9.62977C82.287 10.5612 84.632 11.2998 86.2691 10.3114C85.9273 9.40404 85.1207 8.76627 84.1849 8.31699C83.2513 7.86552 82.0919 7.63978 81.0071 7.52801C78.8374 7.30227 76.9219 7.56088 76.9219 7.56088C76.9219 7.56088 77.3032 7.85018 77.9322 8.25343C78.5568 8.65669 79.4466 9.16734 80.4087 9.62977Z" fill="#FBDE74"/>
<path d="M100.93 56.062C102.114 56.2724 103.232 55.948 104.255 55.2817C104.81 54.9311 105.266 54.4862 105.717 53.9909C106.162 53.4934 106.572 52.9455 106.936 52.3822C107.637 51.2601 108.123 50.0854 108.465 49.1956C108.77 48.308 108.904 47.7053 108.904 47.7053C108.904 47.7053 108.347 47.9529 107.543 48.3891C107.133 48.6017 106.684 48.869 106.171 49.1693C105.656 49.4739 105.119 49.8158 104.588 50.1884C103.528 50.9357 102.539 51.8058 101.772 52.7723C101.733 52.8184 101.706 52.8644 101.667 52.9104C102.039 51.1812 102.348 49.4367 102.576 47.6878C103.569 47.6439 104.437 47.2363 105.189 46.5941C105.412 46.4013 105.629 46.1865 105.833 45.9564C106.035 45.7306 106.212 45.4874 106.385 45.231C106.727 44.7225 107.032 44.1658 107.291 43.607C107.42 43.3242 107.543 43.0393 107.65 42.7654C107.751 42.4914 107.841 42.2262 107.928 41.9654C108.093 41.4482 108.224 40.9617 108.321 40.5431C108.533 39.7059 108.59 39.1339 108.59 39.1339C108.59 39.1339 108.093 39.4056 107.356 39.8659C106.618 40.3239 105.651 40.9748 104.737 41.7594C104.281 42.1517 103.843 42.5725 103.444 43.0262C103.276 43.2125 103.118 43.4053 102.969 43.6026C103.054 42.121 103.076 40.6417 103.028 39.1645C103.736 38.9717 104.343 38.5794 104.862 38.0556C105.248 37.6589 105.594 37.1943 105.881 36.6858C106.158 36.1774 106.39 35.6273 106.58 35.0706C106.765 34.5161 106.94 33.9616 107.028 33.4269C107.122 32.8921 107.185 32.3946 107.234 31.9673C107.277 31.5377 107.304 31.1783 107.312 30.9284C107.319 30.6764 107.308 30.5295 107.308 30.5295C107.308 30.5295 107.205 30.6084 107.008 30.7487C106.822 30.8912 106.545 31.0994 106.217 31.3558C105.566 31.8708 104.715 32.5941 103.931 33.4291C103.736 33.6351 103.545 33.8499 103.363 34.0712C103.173 34.2926 102.986 34.5183 102.817 34.7528C102.767 34.8142 102.725 34.8799 102.677 34.9413C102.491 33.5255 102.226 32.1185 101.879 30.7246C102.539 30.4748 103.072 30.0364 103.493 29.4622C104.148 28.6141 104.455 27.481 104.623 26.3348C104.665 26.0499 104.702 25.7628 104.72 25.48C104.724 25.2017 104.724 24.919 104.715 24.6516C104.698 24.1125 104.661 23.6084 104.615 23.1767C104.575 22.7427 104.498 22.3877 104.441 22.14C104.378 21.888 104.347 21.7455 104.347 21.7455C104.347 21.7455 103.992 22.1071 103.506 22.6945C103.021 23.2818 102.335 24.1037 101.761 25.0045C101.467 25.4603 101.207 25.9315 100.974 26.4224C100.882 26.6022 100.801 26.7819 100.727 26.9682C100.146 25.3573 99.5125 23.8714 98.8156 22.4885C99.5344 22.1707 100.032 21.6118 100.345 20.9017C100.7 20.0076 100.757 18.857 100.632 17.7349C100.451 16.6325 100.137 15.5323 99.8215 14.7389C99.4818 13.9565 99.2079 13.4437 99.2079 13.4437C99.2079 13.4437 98.9624 13.8381 98.6381 14.4649C98.4759 14.7784 98.2984 15.1487 98.1208 15.5586C97.9521 15.9684 97.7439 16.4286 97.5795 16.9042C97.4151 17.3798 97.2705 17.8729 97.1762 18.3704C97.128 18.6159 97.093 18.8657 97.0776 19.1112C97.0732 19.1989 97.0645 19.2909 97.0557 19.3786C96.041 17.7853 94.9254 16.3037 93.6916 14.8638C94.0335 14.6885 94.3118 14.4606 94.5244 14.1866C94.7786 13.8469 94.9342 13.4415 95 12.9922C95.0701 12.5385 95.0526 12.0476 94.9737 11.5347C94.8948 11.0219 94.7611 10.4915 94.5616 9.99842C94.1715 9.00342 93.6653 8.03034 93.2226 7.33998C92.7689 6.66058 92.4292 6.22445 92.4292 6.22445C92.4292 6.22445 92.2582 6.61894 92.0676 7.24355C91.8747 7.86817 91.6665 8.70975 91.5306 9.65434C91.4057 10.5902 91.4057 11.5786 91.6621 12.5013C91.6797 12.5692 91.6972 12.6306 91.7169 12.6941C90.2792 11.195 88.7012 9.70255 86.9742 8.14431C88.6837 7.18219 88.2213 5.1637 87.2657 3.32931C86.7748 2.42637 86.1612 1.6067 85.6746 0.993044C85.1859 0.383773 84.8265 -0.00195312 84.8265 -0.00195312C84.8265 -0.00195312 84.3443 1.5541 84.3618 3.32055C84.3706 4.20377 84.5174 5.13302 84.8812 6.0009C84.958 6.17623 85.0456 6.34499 85.1464 6.50498C85.1464 6.50498 85.145 6.50498 85.1421 6.50498C83.5685 5.11329 80.8311 3.6734 80.8311 3.6734C91.7213 12.7971 100.041 23.8298 101.283 36.4798C101.728 41.0713 101.174 45.6583 100.459 50.2125C99.655 55.3562 98.3597 60.4825 95.6947 65.2514C91.5745 72.6197 86.0823 78.5173 78.6044 83.1241C78.6044 83.1241 67.3899 88.75 55.3623 88.8749V88.8705C55.073 88.8749 54.7881 88.8727 54.4966 88.8727C54.3563 88.8727 54.2182 88.8727 54.078 88.8705C42.2016 88.6996 30.8336 83.1241 30.8336 83.1241C23.3646 78.5173 17.868 72.6219 13.7499 65.2514C11.0871 60.4846 9.78966 55.3563 8.98534 50.2147C8.26868 45.6561 7.7142 41.0734 8.16567 36.4776C9.40613 23.8319 17.7211 12.7993 28.6135 3.67559C28.6135 3.67559 25.8784 5.11549 24.3026 6.50717C24.3026 6.50717 24.3026 6.50717 24.2982 6.50717C24.399 6.3428 24.4867 6.17623 24.5612 6.00309C24.9272 5.13521 25.0719 4.20596 25.0872 3.32274C25.1003 1.55629 24.6226 0.000238498 24.6226 0.000238498C24.6226 0.000238498 24.2588 0.385964 23.7722 0.995235C23.2879 1.60889 22.6654 2.43075 22.1767 3.33151C21.2234 5.16589 20.7631 7.18219 22.4726 8.1465C20.7434 9.70475 19.1698 11.1972 17.7255 12.6963C17.7453 12.6328 17.7628 12.5692 17.7825 12.5013C18.0411 11.5786 18.0367 10.5924 17.9118 9.65653C17.7781 8.71194 17.5677 7.86817 17.3771 7.24574C17.182 6.62113 17.0176 6.22664 17.0176 6.22664C17.0176 6.22664 16.6757 6.66496 16.2243 7.33998C15.7838 8.02815 15.2709 9.00562 14.8808 10.0006C14.6814 10.4937 14.5455 11.0263 14.4688 11.5369C14.3921 12.0476 14.3723 12.5407 14.4425 12.9944C14.5126 13.4437 14.6638 13.8491 14.9246 14.1888C15.1328 14.4606 15.4112 14.6863 15.7531 14.866C14.5214 16.3059 13.4037 17.7875 12.3889 19.3808C12.3845 19.2931 12.3758 19.201 12.367 19.1134C12.3495 18.8657 12.3188 18.6159 12.2662 18.3726C12.1698 17.8751 12.0339 17.3798 11.8651 16.9064C11.7008 16.4308 11.4947 15.9706 11.3216 15.5608C11.1441 15.1531 10.9666 14.7805 10.8044 14.4649C10.4844 13.8403 10.2346 13.4458 10.2346 13.4458C10.2346 13.4458 9.96061 13.9565 9.62529 14.7411C9.31189 15.5345 8.99849 16.6369 8.81658 17.737C8.68728 18.8592 8.74645 20.0098 9.09711 20.9039C9.41051 21.6118 9.90801 22.1729 10.6269 22.4885C9.92993 23.8736 9.29874 25.3595 8.72015 26.966C8.64783 26.7841 8.56016 26.6022 8.47031 26.4181C8.23361 25.9315 7.975 25.4581 7.68132 25.0045C7.10931 24.0993 6.42333 23.2818 5.93898 22.6945C5.45244 22.1071 5.0974 21.7455 5.0974 21.7455C5.0974 21.7455 5.06672 21.888 5.00097 22.14C4.94618 22.3855 4.86509 22.7427 4.83221 23.1767C4.784 23.6106 4.74674 24.1125 4.73359 24.6516C4.72263 24.919 4.71825 25.1973 4.72921 25.48C4.74674 25.7628 4.77961 26.0477 4.81906 26.3348C4.98782 27.481 5.29684 28.6119 5.95432 29.46C6.37512 30.0364 6.90768 30.4748 7.56298 30.7246C7.2167 32.1185 6.9537 33.5255 6.76742 34.9413C6.72139 34.8777 6.67975 34.812 6.63154 34.7506C6.4584 34.5205 6.27211 34.2948 6.07925 34.0712C5.90392 33.8499 5.70667 33.6351 5.51162 33.4291C4.73359 32.5962 3.88324 31.873 3.22795 31.358C2.90359 31.0994 2.62087 30.8955 2.43458 30.7487C2.24391 30.6106 2.13433 30.5295 2.13433 30.5295C2.13433 30.5295 2.12556 30.6764 2.12994 30.9306C2.14309 31.1805 2.17158 31.5399 2.21322 31.9694C2.25706 32.399 2.32061 32.8965 2.41704 33.4291C2.50252 33.9616 2.68004 34.5183 2.86414 35.0728C3.05481 35.6273 3.28931 36.1774 3.56326 36.688C3.84817 37.1943 4.19445 37.6611 4.58456 38.0578C5.10178 38.5794 5.71105 38.9739 6.41237 39.1667C6.36635 40.6439 6.39265 42.1232 6.47593 43.6026C6.3269 43.4075 6.16691 43.2147 5.99816 43.0262C5.59928 42.5747 5.16096 42.1561 4.7051 41.7616C3.79558 40.977 2.82907 40.3239 2.0883 39.868C1.35192 39.4034 0.852226 39.1361 0.852226 39.1361C0.852226 39.1361 0.913592 39.7081 1.11522 40.5453C1.22042 40.9639 1.35192 41.4504 1.52067 41.9676C1.60176 42.2284 1.69381 42.4958 1.79243 42.7676C1.90201 43.0415 2.02694 43.3242 2.15624 43.6092C2.41704 44.168 2.7173 44.7225 3.05919 45.2331C3.23233 45.4896 3.41423 45.7328 3.60929 45.9586C3.81311 46.1887 4.03008 46.4035 4.25582 46.5941C5.00535 47.2385 5.87543 47.6439 6.86385 47.69C7.09397 49.4411 7.40299 51.1834 7.77118 52.9126C7.7405 52.8644 7.70981 52.8184 7.67694 52.7745C6.90768 51.8058 5.91707 50.9379 4.85413 50.1906C4.32376 49.818 3.78243 49.4761 3.27616 49.1715C2.76332 48.8712 2.30746 48.6039 1.90201 48.3869C1.0955 47.9508 0.541016 47.7053 0.541016 47.7053C0.541016 47.7053 0.674705 48.308 0.977149 49.1956C1.32343 50.0854 1.80558 51.2557 2.50909 52.3822C2.87729 52.9433 3.28493 53.4934 3.72764 53.9909C4.17692 54.4862 4.63716 54.9311 5.19164 55.2817C6.21074 55.9502 7.32847 56.2724 8.51633 56.062C8.56893 56.2833 8.6303 56.5003 8.68728 56.7151C9.09711 58.2645 9.5968 59.7943 10.1907 61.2934C10.0768 61.1816 9.96499 61.0676 9.84884 60.9558C9.60119 60.7367 9.336 60.5197 9.06205 60.3159C8.78371 60.1077 8.5251 59.9061 8.23361 59.7154C7.66379 59.3275 7.04575 58.9746 6.42772 58.6525C5.81187 58.3303 5.16972 58.041 4.61524 57.7824C4.052 57.5238 3.51724 57.3024 3.06796 57.1183C2.15186 56.7545 1.5382 56.5551 1.5382 56.5551C1.5382 56.5551 1.79682 57.1753 2.27459 58.0717C2.50252 58.5188 2.85537 59.0338 3.22356 59.5729C3.60052 60.1099 4.01693 60.6775 4.48594 61.2166C4.98782 61.758 5.52915 62.2752 6.09897 62.7289C6.3795 62.9568 6.6666 63.1716 6.96028 63.3622C7.10931 63.4543 7.25396 63.5463 7.40299 63.6318C7.55859 63.7173 7.71858 63.794 7.87419 63.8641C9.08835 64.4164 10.3113 64.5852 11.4772 64.1907C12.3144 65.8738 13.2853 67.5176 14.4052 69.1109C14.2277 68.9772 14.0436 68.8479 13.8486 68.7295C13.5439 68.5411 13.2261 68.3657 12.8908 68.1992C12.5796 68.0238 12.2465 67.8638 11.9068 67.706C11.2361 67.397 10.5195 67.1296 9.8072 66.8886C9.45216 66.7724 9.10149 66.6606 8.75084 66.5533C8.40894 66.4524 8.07801 66.3472 7.76241 66.2552C7.13123 66.0667 6.5351 65.9089 6.03322 65.7818C5.00974 65.5298 4.33691 65.407 4.33691 65.407C4.33691 65.407 4.75551 66.0141 5.45683 66.8776C5.78995 67.3159 6.26334 67.7937 6.78276 68.2956C7.29998 68.7975 7.8698 69.3169 8.48346 69.8078C9.12341 70.2834 9.81816 70.7305 10.5085 71.1074C10.8548 71.2959 11.2011 71.4669 11.5517 71.6159C11.8936 71.7671 12.2421 71.8964 12.6059 71.9885C14.0042 72.3611 15.3104 72.3304 16.3974 71.708C17.491 73.0733 18.6438 74.4475 19.8711 75.7931C19.8207 75.7712 19.7703 75.7493 19.7199 75.7296C19.538 75.6594 19.3605 75.5937 19.1742 75.5301C18.9879 75.4666 18.8148 75.4008 18.6307 75.3373C18.2669 75.2124 17.8899 75.105 17.5042 75.0042C16.7393 74.8047 15.9437 74.6469 15.1635 74.5176C14.3636 74.3971 13.6403 74.2743 12.939 74.1867C12.2465 74.099 11.6043 74.0311 11.0542 73.9807C9.95623 73.8842 9.23738 73.8579 9.23738 73.8579C9.23738 73.8579 9.82254 74.4124 10.7671 75.1817C11.0016 75.3723 11.2559 75.5784 11.5342 75.7931C11.8147 76.0013 12.1369 76.2052 12.4656 76.4199C13.1253 76.8429 13.8442 77.2725 14.5959 77.6692C14.7822 77.7678 14.9641 77.8664 15.1591 77.9585C15.3564 78.0461 15.5558 78.1316 15.7618 78.2127C16.1607 78.3771 16.5618 78.5305 16.9672 78.662C17.7672 78.9293 18.5605 79.1288 19.3057 79.2186C20.5812 79.3523 21.7362 79.188 22.6282 78.6444C23.6298 79.6131 24.673 80.5446 25.7644 81.4234C25.4335 81.3774 25.1003 81.3358 24.7606 81.2985C23.9388 81.2152 23.0709 81.2042 22.2819 81.1692C20.6776 81.1188 19.1391 81.1889 18.0039 81.2678C17.4297 81.3073 16.9628 81.3489 16.6407 81.3818C16.3163 81.4125 16.1388 81.43 16.1388 81.43C16.1388 81.43 16.1804 81.4607 16.2659 81.5177C16.347 81.5703 16.4763 81.647 16.6407 81.7412C16.9672 81.9363 17.434 82.2036 18.0104 82.5083C18.5868 82.8173 19.2641 83.1636 20.007 83.5055C20.7719 83.8254 21.6047 84.1366 22.4594 84.415C22.8846 84.5509 23.3164 84.6802 23.7481 84.7963C23.9629 84.8555 24.1755 84.9081 24.3924 84.9585C24.6094 85.0023 24.8352 85.0418 25.0456 85.0769C25.9288 85.2149 26.7747 85.2894 27.5572 85.2675C28.6223 85.239 29.5603 85.0243 30.2923 84.5837C30.6999 84.8226 31.112 85.0506 31.5328 85.2697C31.627 85.3201 31.6993 85.3333 31.7541 85.3245C37.4063 88.4366 44.3976 90.3521 50.155 91.0359C45.5438 91.895 40.1283 92.8396 34.3753 93.7162L28.1642 98.998C28.1642 98.998 42.1358 94.343 55.1716 91.3778C68.2052 94.3408 82.1724 98.998 82.1724 98.998L75.9635 93.7162C70.0637 92.8177 64.5145 91.8468 59.8266 90.9723C66.9582 90.1614 72.9435 88.0706 77.7409 85.3267C77.7935 85.3223 77.8461 85.3092 77.9141 85.2741C78.3305 85.0527 78.7425 84.8226 79.1501 84.5859C79.8843 85.0286 80.8202 85.2434 81.8853 85.2697C82.6699 85.2916 83.5202 85.2193 84.3925 85.079C84.6073 85.044 84.8352 85.0045 85.05 84.9607C85.267 84.9103 85.4817 84.8577 85.6965 84.7985C86.1261 84.6824 86.56 84.5552 86.983 84.4172C87.8377 84.141 88.6749 83.8276 89.4376 83.5098C90.1784 83.1658 90.86 82.8195 91.432 82.5105C92.0084 82.2058 92.4774 81.9384 92.8062 81.7456C92.9683 81.6513 93.0954 81.5746 93.1831 81.5198C93.2598 81.4629 93.3058 81.4322 93.3058 81.4322C93.3058 81.4322 93.1327 81.4146 92.8062 81.384C92.4818 81.3489 92.0128 81.3073 91.4408 81.27C90.3055 81.1889 88.7714 81.1232 87.1649 81.1714C86.3781 81.2064 85.5102 81.2174 84.6862 81.3029C84.3487 81.3357 84.0156 81.3796 83.6802 81.4278C84.7673 80.5468 85.8127 79.6153 86.8186 78.6488C87.7084 79.1902 88.8612 79.3545 90.1368 79.2208C90.8841 79.1288 91.6797 78.9315 92.4774 78.6642C92.8807 78.5327 93.2817 78.3814 93.6828 78.2149C93.8866 78.1338 94.0839 78.0505 94.2833 77.9628C94.4805 77.8708 94.6625 77.77 94.8531 77.6714C95.5983 77.2725 96.3171 76.8451 96.9768 76.4221C97.3055 76.2074 97.6277 76.0035 97.9082 75.7953C98.1844 75.5805 98.4474 75.3745 98.6797 75.1839C99.6265 74.4168 100.205 73.8601 100.205 73.8601C100.205 73.8601 99.4906 73.8842 98.3948 73.9829C97.8381 74.0333 97.1982 74.099 96.5056 74.1889C95.8065 74.2765 95.0811 74.3993 94.2833 74.5198C93.5009 74.6491 92.7053 74.8069 91.9405 75.0063C91.5569 75.1072 91.18 75.2189 90.8162 75.3395C90.6299 75.403 90.4567 75.4688 90.2704 75.5345C90.0885 75.5981 89.9066 75.666 89.7291 75.734C89.6721 75.7537 89.6239 75.7756 89.5779 75.7953C90.7986 74.4497 91.9536 73.0755 93.0494 71.7101C94.1343 72.3326 95.4383 72.3632 96.8387 71.9907C97.2025 71.8986 97.5488 71.7693 97.8973 71.6203C98.2436 71.4691 98.5942 71.2981 98.9361 71.1096C99.6309 70.7327 100.323 70.2856 100.961 69.81C101.566 69.3169 102.145 68.8019 102.664 68.2978C103.181 67.7959 103.655 67.3181 103.988 66.8798C104.689 66.0185 105.11 65.4092 105.11 65.4092C105.11 65.4092 104.433 65.5341 103.414 65.784C102.907 65.9111 102.313 66.0689 101.68 66.2574C101.364 66.3516 101.034 66.4546 100.692 66.5554C100.345 66.6628 99.9903 66.7746 99.6352 66.893C98.923 67.1318 98.2129 67.3992 97.5379 67.7082C97.1982 67.8638 96.8694 68.026 96.5516 68.2014C96.2229 68.3679 95.9007 68.5432 95.5939 68.7317C95.3988 68.8523 95.2169 68.9794 95.0394 69.1131C96.1637 67.5219 97.1324 65.8782 97.9652 64.1929C99.1312 64.5874 100.358 64.4186 101.566 63.8685C101.724 63.7962 101.884 63.7217 102.039 63.634C102.193 63.5485 102.335 63.4587 102.482 63.3644C102.776 63.1738 103.067 62.959 103.35 62.7311C103.913 62.2796 104.455 61.7602 104.961 61.221C105.43 60.6797 105.849 60.1121 106.223 59.5773C106.587 59.0382 106.944 58.521 107.172 58.0739C107.646 57.1775 107.906 56.5573 107.906 56.5573C107.906 56.5573 107.291 56.7567 106.381 57.1205C105.925 57.3046 105.393 57.526 104.834 57.7846C104.273 58.0454 103.633 58.3347 103.021 58.6546C102.399 58.9746 101.785 59.3297 101.211 59.7176C100.922 59.9082 100.657 60.1099 100.383 60.3181C100.106 60.5241 99.8413 60.7367 99.6002 60.9602C99.4775 61.072 99.3657 61.1816 99.2583 61.2934C99.85 59.7943 100.35 58.2645 100.762 56.7151C100.819 56.4981 100.874 56.2811 100.93 56.062Z" fill="#FBDE74"/>
</g>
<defs>
<clipPath id="clip0_1963_43246">
<rect width="108.363" height="99" fill="white" transform="translate(0.541016)"/>
</clipPath>
</defs>
</svg>
