<svg width="24" height="25" viewBox="0 0 24 25" fill="none" xmlns="http://www.w3.org/2000/svg">
<g id="ic/like">
<g id="Vector">
<path d="M6 8.24414H4C2.89543 8.24414 2 9.13957 2 10.2441V19.2441C2 20.3487 2.89543 21.2441 4 21.2441H6C7.10457 21.2441 8 20.3487 8 19.2441V10.2441C8 9.13957 7.10457 8.24414 6 8.24414Z" stroke="#666666" stroke-width="1.5" stroke-linecap="round" stroke-linejoin="round"/>
<path d="M15.8769 21.2441H12.2111C11.4214 21.2441 10.6494 21.0104 9.9923 20.5723L8.4453 19.541C8.1671 19.3555 8 19.0433 8 18.709V10.5097C8 10.3357 8.04541 10.1647 8.13176 10.0136L12 3.24414H13.3287C15.3254 3.24414 16.5164 5.4695 15.4088 7.13089L14 9.24414H19.4384C20.7396 9.24414 21.6943 10.4669 21.3787 11.7292L19.7575 18.2143C19.3123 19.995 17.7124 21.2441 15.8769 21.2441Z" stroke="#666666" stroke-width="1.5" stroke-linecap="round" stroke-linejoin="round"/>
</g>
</g>
</svg>
