<svg width="40" height="40" viewBox="0 0 40 40" fill="none" xmlns="http://www.w3.org/2000/svg">
<path d="M5 35H35M22.974 8.85285C22.974 8.85285 22.974 11.5772 25.6984 14.3016C28.4228 17.026 31.1471 17.026 31.1471 17.026M12.1994 29.9801L17.9206 29.1628C18.7458 29.0449 19.5106 28.6625 20.1001 28.0731L33.8715 14.3016C35.3762 12.797 35.3762 10.3575 33.8715 8.85285L31.1472 6.12847C29.6425 4.62384 27.203 4.62384 25.6984 6.12847L11.9269 19.8999C11.3375 20.4894 10.9551 21.2542 10.8372 22.0794L10.0199 27.8006C9.83825 29.072 10.928 30.1617 12.1994 29.9801Z" stroke="white" stroke-width="2.5" stroke-linecap="round"/>
</svg>
