<svg width="520" height="448" viewBox="0 0 520 448" fill="none" xmlns="http://www.w3.org/2000/svg">
<g clip-path="url(#clip0_1555_77465)">
<path d="M187.333 246.761L181.665 287.061C180.292 296.827 172.864 304.642 163.18 306.509L107.545 317.234C97.267 319.215 86.943 314.031 82.3925 304.606L67.6531 274.074C63.1334 264.712 65.4313 253.483 73.2655 246.649L99.7432 223.551C106.358 217.781 109.126 208.759 106.887 200.271L94.8503 154.659C92.243 144.779 98.2167 134.674 108.13 132.196C117.392 129.881 126.881 135.061 129.942 144.104L146.236 192.247C147.512 196.017 149.742 199.393 152.708 202.047L179.867 226.348C185.605 231.481 188.405 239.138 187.333 246.761Z" fill="url(#paint0_linear_1555_77465)"/>
<path d="M273.034 329.502C261.815 289.604 296.494 266.257 317.558 258.771C318.631 258.39 319.754 258.219 320.892 258.219H426.71C507.409 260.64 504.21 317.503 490.781 350.873C489.218 354.759 489.708 359.228 492.364 362.467L575.165 463.445C575.845 464.274 576.41 465.222 576.802 466.22C598.017 520.231 564.412 554.225 542.893 565.742C541.464 566.507 539.861 566.859 538.24 566.859H134.092C129.113 566.859 124.784 563.44 123.631 558.595L69.0601 329.399C67.6392 323.431 71.4906 317.485 77.5179 316.342L181.366 296.647C186.906 295.596 192.318 299.004 193.764 304.455L213.947 380.53C216.161 388.876 226.812 391.34 232.468 384.815L270.854 340.526C273.456 337.523 274.109 333.327 273.034 329.502Z" fill="url(#paint1_linear_1555_77465)"/>
<path fill-rule="evenodd" clip-rule="evenodd" d="M397.676 284.155C397.676 279.448 400.762 275.342 405.131 273.592C442.359 258.682 468.654 222.269 468.654 179.715C468.654 123.885 423.395 78.627 367.566 78.627C311.737 78.627 266.479 123.885 266.479 179.715C266.479 219.279 289.208 253.535 322.322 270.136C326.208 272.085 328.851 275.957 328.851 280.304V318.692C328.851 327.299 338.458 332.419 345.602 327.619L392.92 295.827C395.893 293.83 397.676 290.483 397.676 286.901V284.155Z" fill="url(#paint2_linear_1555_77465)"/>
<path fill-rule="evenodd" clip-rule="evenodd" d="M468.898 189.962C454.94 191.95 440.371 191.308 425.856 187.637C381.091 176.316 349.557 139.401 342.929 96.4702C326.8 113.752 304.925 125.016 281.226 127.921C303.413 90.1784 348.573 69.924 393.156 81.1993C442.604 93.7047 474.237 140.668 468.898 189.962Z" fill="url(#paint3_linear_1555_77465)"/>
<ellipse cx="298.482" cy="149.403" rx="8.46221" ry="11.5394" fill="#4D4D4D"/>
<ellipse cx="338.484" cy="159.403" rx="8.46221" ry="11.5394" fill="#4D4D4D"/>
<rect x="144.172" y="98" width="31.1947" height="31.1947" rx="8" transform="rotate(17 144.172 98)" fill="#7FACFF"/>
<rect x="69.1719" y="89" width="31.1947" height="31.1947" rx="15.5973" transform="rotate(17 69.1719 89)" fill="#B2CDFF"/>
<path d="M116.919 71.1171C119.778 69.9734 122.803 72.3535 122.364 75.4012L118.931 99.2353C118.492 102.283 114.918 103.713 112.498 101.809L93.574 86.9184C91.154 85.0143 91.7028 81.2046 94.5617 80.061L116.919 71.1171Z" fill="#337AFF"/>
</g>
<defs>
<linearGradient id="paint0_linear_1555_77465" x1="124.524" y1="128.098" x2="163.663" y2="335.554" gradientUnits="userSpaceOnUse">
<stop offset="0.619792" stop-color="white"/>
<stop offset="1" stop-color="#E5EEFF"/>
</linearGradient>
<linearGradient id="paint1_linear_1555_77465" x1="354.638" y1="375.189" x2="214.13" y2="671.591" gradientUnits="userSpaceOnUse">
<stop stop-color="#0059FF"/>
<stop offset="0.614583" stop-color="#4C8BFF"/>
</linearGradient>
<linearGradient id="paint2_linear_1555_77465" x1="367.566" y1="78.627" x2="367.566" y2="329.465" gradientUnits="userSpaceOnUse">
<stop offset="0.619792" stop-color="white"/>
<stop offset="1" stop-color="#CCDEFF"/>
</linearGradient>
<linearGradient id="paint3_linear_1555_77465" x1="395.244" y1="81.728" x2="295.402" y2="106.704" gradientUnits="userSpaceOnUse">
<stop stop-color="#669BFF"/>
<stop offset="1" stop-color="#99BDFF"/>
</linearGradient>
<clipPath id="clip0_1555_77465">
<rect width="520" height="448" rx="20.6038" fill="white"/>
</clipPath>
</defs>
</svg>
