<svg width="72" height="72" viewBox="0 0 72 72" fill="none" xmlns="http://www.w3.org/2000/svg">
<mask id="mask0_1154_35445" style="mask-type:alpha" maskUnits="userSpaceOnUse" x="0" y="0" width="72" height="72">
<circle cx="36" cy="36" r="36" fill="#222222"/>
</mask>
<g mask="url(#mask0_1154_35445)">
<circle cx="36" cy="36" r="36" fill="#CDD6DE"/>
<path fill-rule="evenodd" clip-rule="evenodd" d="M62.9993 62.9427C62.9993 65.5503 62.1772 66.9375 59.625 66.9375L37.125 75.375L13.5 67.5C10.9485 67.5 10.125 65.5483 10.125 62.9434V59.4987C10.125 54.6232 17.0054 49.8868 23.0045 48.2857C27.1618 47.1751 29.695 44.9953 30.3159 41.4501C26.3592 37.6775 23.681 30.8288 23.681 24.9846C23.683 16.4012 29.4483 11.25 36.5625 11.25C43.6767 11.25 49.442 16.4032 49.442 24.9853C49.442 30.8322 46.7644 37.6796 42.8091 41.4508C43.4293 44.9974 45.9625 47.1779 50.1205 48.2884C56.1224 49.8895 63 54.6266 63 59.5015V62.9462L62.9993 62.9427Z" fill="white"/>
</g>
</svg>
