<svg width="1200" height="201" viewBox="0 0 1200 201" fill="none" xmlns="http://www.w3.org/2000/svg">
<g opacity="0.5">
<mask id="path-1-inside-1_1651_65129" fill="white">
<path fill-rule="evenodd" clip-rule="evenodd" d="M430 0C418.954 0 410 8.95431 410 20V89C410 95.6274 404.627 101 398 101H20C8.95431 101 0 109.954 0 121V189C0 195.627 5.37257 201 12 201H1188C1194.63 201 1200 195.627 1200 189V121C1200 109.954 1191.05 101 1180 101H802C795.373 101 790 95.6274 790 89V20C790 8.95431 781.046 0 770 0H430Z"/>
</mask>
<path fill-rule="evenodd" clip-rule="evenodd" d="M430 0C418.954 0 410 8.95431 410 20V89C410 95.6274 404.627 101 398 101H20C8.95431 101 0 109.954 0 121V189C0 195.627 5.37257 201 12 201H1188C1194.63 201 1200 195.627 1200 189V121C1200 109.954 1191.05 101 1180 101H802C795.373 101 790 95.6274 790 89V20C790 8.95431 781.046 0 770 0H430Z" fill="url(#paint0_linear_1651_65129)"/>
<path d="M411 20C411 9.50659 419.507 1 430 1V-1C418.402 -1 409 8.40202 409 20H411ZM411 89V20H409V89H411ZM20 102H398V100H20V102ZM1 121C1 110.507 9.50659 102 20 102V100C8.40202 100 -1 109.402 -1 121H1ZM1 189V121H-1V189H1ZM1188 200H12V202H1188V200ZM1199 121V189H1201V121H1199ZM1180 102C1190.49 102 1199 110.507 1199 121H1201C1201 109.402 1191.6 100 1180 100V102ZM802 102H1180V100H802V102ZM789 20V89H791V20H789ZM770 1C780.493 1 789 9.50659 789 20H791C791 8.40202 781.598 -1 770 -1V1ZM430 1H770V-1H430V1ZM802 100C795.925 100 791 95.0751 791 89H789C789 96.1797 794.82 102 802 102V100ZM1188 202C1195.18 202 1201 196.18 1201 189H1199C1199 195.075 1194.08 200 1188 200V202ZM-1 189C-1 196.18 4.82029 202 12 202V200C5.92486 200 1 195.075 1 189H-1ZM409 89C409 95.0751 404.075 100 398 100V102C405.18 102 411 96.1797 411 89H409Z" fill="url(#paint1_linear_1651_65129)" mask="url(#path-1-inside-1_1651_65129)"/>
</g>
<path d="M186.338 157L186.297 152.529L196.961 142.727C199.729 140.081 201.227 138.44 201.227 136.082C201.227 133.437 199.237 131.796 196.51 131.816C193.721 131.796 191.896 133.56 191.916 136.41H186.051C186.03 130.606 190.337 126.895 196.592 126.895C202.949 126.895 207.174 130.524 207.174 135.672C207.174 139.056 205.533 141.824 199.422 147.361L194.91 151.75V151.914H207.584V157H186.338Z" fill="url(#paint2_linear_1651_65129)"/>
<path d="M1010.33 157.41C1003.81 157.41 999.133 153.821 999.01 148.633H1005.24C1005.35 150.848 1007.5 152.304 1010.37 152.324C1013.32 152.304 1015.44 150.663 1015.42 148.264C1015.44 145.844 1013.28 144.142 1009.8 144.121H1007.05V139.568H1009.8C1012.73 139.568 1014.78 137.969 1014.76 135.631C1014.78 133.354 1013.04 131.796 1010.41 131.816C1007.79 131.796 1005.63 133.272 1005.53 135.549H999.625C999.728 130.442 1004.32 126.895 1010.41 126.895C1016.61 126.895 1020.73 130.565 1020.71 135.262C1020.73 138.584 1018.41 140.942 1015.09 141.537V141.783C1019.46 142.316 1021.86 144.962 1021.81 148.674C1021.86 153.76 1017.04 157.41 1010.33 157.41Z" fill="url(#paint3_linear_1651_65129)"/>
<path fill-rule="evenodd" clip-rule="evenodd" d="M632.697 29H566.766C561.749 29 557.612 32.7645 557.025 37.6225H544.064C538.554 37.6225 534.087 42.0895 534.087 47.5994C534.087 61.3888 541.506 74.1117 553.507 80.9034L553.507 80.9034L559.688 84.4013C564.216 96.414 573.996 105.85 586.229 109.916C590.207 111.238 592.823 115.048 592.823 119.24V126.421C592.823 128.459 591.171 130.111 589.133 130.111H575.202C572.047 130.111 569.489 132.669 569.489 135.824V143.313H629.972V135.824C629.972 132.669 627.415 130.111 624.259 130.111H610.329C608.291 130.111 606.639 128.459 606.639 126.421V119.24C606.639 115.048 609.256 111.238 613.233 109.916C625.352 105.888 635.064 96.5897 639.646 84.7371L646.42 80.9034C658.421 74.1117 665.84 61.3888 665.84 47.5994C665.84 42.0895 661.373 37.6225 655.863 37.6225H642.437C641.85 32.7644 637.713 29 632.697 29ZM642.224 74.2869C642.412 72.6579 642.509 71.001 642.509 69.3214V45.4478H655.863C657.051 45.4478 658.014 46.4112 658.014 47.5994C658.014 58.5691 652.113 68.6902 642.566 74.0931L642.224 74.2869ZM544.064 45.4478H556.953V69.3214C556.953 70.9043 557.039 72.467 557.207 74.0052C547.751 68.5809 541.913 58.5098 541.913 47.5994C541.913 46.4112 542.876 45.4478 544.064 45.4478Z" fill="url(#paint4_linear_1651_65129)"/>
<path d="M605.135 46.3047V76H598.941V52.1699H598.777L591.969 56.4355V50.9805L599.311 46.3047H605.135Z" fill="url(#paint5_linear_1651_65129)"/>
<defs>
<linearGradient id="paint0_linear_1651_65129" x1="600" y1="-43" x2="600" y2="388.5" gradientUnits="userSpaceOnUse">
<stop stop-color="#669BFF"/>
<stop offset="1" stop-color="#99BDFF" stop-opacity="0"/>
</linearGradient>
<linearGradient id="paint1_linear_1651_65129" x1="385" y1="-163.5" x2="461" y2="145.5" gradientUnits="userSpaceOnUse">
<stop stop-color="#E5EEFF"/>
<stop offset="1" stop-color="#CFE0FF" stop-opacity="0"/>
</linearGradient>
<linearGradient id="paint2_linear_1651_65129" x1="197" y1="113" x2="197" y2="167.5" gradientUnits="userSpaceOnUse">
<stop stop-color="white"/>
<stop offset="1" stop-color="white" stop-opacity="0"/>
</linearGradient>
<linearGradient id="paint3_linear_1651_65129" x1="1010.5" y1="113" x2="1010.5" y2="167.5" gradientUnits="userSpaceOnUse">
<stop stop-color="white"/>
<stop offset="1" stop-color="white" stop-opacity="0"/>
</linearGradient>
<linearGradient id="paint4_linear_1651_65129" x1="599.964" y1="18.5" x2="599.964" y2="152.5" gradientUnits="userSpaceOnUse">
<stop stop-color="#669BFF"/>
<stop offset="1" stop-color="#A0C1FF"/>
</linearGradient>
<linearGradient id="paint5_linear_1651_65129" x1="600" y1="32" x2="600" y2="86.5" gradientUnits="userSpaceOnUse">
<stop stop-color="white"/>
<stop offset="1" stop-color="white" stop-opacity="0"/>
</linearGradient>
</defs>
</svg>
