<svg width="59" height="59" viewBox="0 0 59 59" fill="none" xmlns="http://www.w3.org/2000/svg">
<rect x="0.867188" y="0.879883" width="56.7439" height="56.7439" rx="28.372" fill="white"/>
<rect x="0.867188" y="0.879883" width="56.7439" height="56.7439" rx="28.372" stroke="#E6E6E6" stroke-width="1.5"/>
<path d="M29.3645 31.973C30.94 31.973 32.2172 30.6958 32.2172 29.1203C32.2172 27.5448 30.94 26.2676 29.3645 26.2676C27.7889 26.2676 26.5117 27.5448 26.5117 29.1203C26.5117 30.6958 27.7889 31.973 29.3645 31.973Z" fill="#61DAFB"/>
<path d="M29.362 34.9666C37.816 34.9666 44.6694 32.3499 44.6694 29.122C44.6694 25.8941 37.816 23.2773 29.362 23.2773C20.908 23.2773 14.0547 25.8941 14.0547 29.122C14.0547 32.3499 20.908 34.9666 29.362 34.9666Z" stroke="#61DAFB" stroke-width="1.61789"/>
<path d="M24.2961 32.0426C28.5231 39.364 34.2159 43.9908 37.0114 42.3768C39.8068 40.7629 38.6463 33.5193 34.4193 26.198C30.1923 18.8766 24.4995 14.2498 21.704 15.8637C18.9086 17.4777 20.0691 24.7212 24.2961 32.0426Z" stroke="#61DAFB" stroke-width="1.61789"/>
<path d="M24.3013 26.1981C20.0743 33.5194 18.9138 40.763 21.7092 42.3769C24.5046 43.9909 30.1974 39.3641 34.4245 32.0427C38.6515 24.7213 39.812 17.4778 37.0165 15.8638C34.2211 14.2499 28.5283 18.8767 24.3013 26.1981Z" stroke="#61DAFB" stroke-width="1.61789"/>
</svg>
