<svg width="171" height="45" viewBox="0 0 171 45" fill="none" xmlns="http://www.w3.org/2000/svg">
<path opacity="0.5" d="M14.8947 0.472656H44.0341V29.8454H14.7755C6.62408 29.8454 0 23.289 0 15.2207C0 7.08274 6.67282 0.472656 14.8947 0.472656Z" fill="#0059FF"/>
<path opacity="0.5" d="M29.2635 44.5293L0.00492859 44.5293L0.00492859 15.1565L29.1444 15.1565C37.3662 15.1619 44.0391 21.7666 44.0391 29.9046C44.0391 37.9782 37.415 44.5293 29.2635 44.5293Z" fill="#0059FF"/>
<path opacity="0.5" d="M67.5704 0.472656H50.5742V44.5291H67.5704V0.472656Z" fill="#0059FF"/>
<path opacity="0.5" d="M94.5975 0.472656H50.5742V13.3926H94.5975V0.472656Z" fill="#0059FF"/>
<path opacity="0.5" d="M84.572 18.3125H50.5742V31.018H84.572V18.3125Z" fill="#0059FF"/>
<path opacity="0.5" d="M87.8555 44.5291H109.986V0.472656L87.8555 44.5291Z" fill="#0059FF"/>
<path opacity="0.72" d="M109.988 44.5291H132.125L109.988 0.472656V44.5291Z" fill="#0059FF"/>
<path opacity="0.5" d="M138.994 38.448C143.018 42.281 148.472 44.6452 154.495 44.6452C160.951 44.6452 166.752 41.9219 170.836 37.5902L155.345 22.2578L138.988 38.448H138.994Z" fill="#0059FF"/>
<path opacity="0.5" d="M154.497 0.355469C148.598 0.355469 143.247 2.63388 139.25 6.32759L155.353 22.2658L170.616 7.15854C166.543 2.97162 160.834 0.355469 154.502 0.355469L154.497 0.355469Z" fill="#0059FF"/>
<path opacity="0.72" d="M139.249 6.32763C134.873 10.3698 132.121 16.1114 132.121 22.5017C132.121 28.892 134.764 34.4245 138.994 38.4506L155.351 22.2604L139.249 6.32227V6.32763Z" fill="#0059FF"/>
</svg>
