<svg width="20" height="25" viewBox="0 0 20 25" fill="none" xmlns="http://www.w3.org/2000/svg">
<path d="M1.72436 6.35231L10 0.471827L18.2756 6.35231V18.2628L10 24.1433L1.72436 18.2628V6.35231Z" fill="white" stroke="#EC9595" stroke-width="0.769231"/>
<mask id="mask0_1741_79553" style="mask-type:alpha" maskUnits="userSpaceOnUse" x="1" y="0" width="18" height="25">
<path d="M10 0L18.6603 6.15378V18.4613L10 24.6151L1.33975 18.4613V6.15378L10 0Z" fill="#D9D9D9"/>
</mask>
<g mask="url(#mask0_1741_79553)">
<g filter="url(#filter0_f_1741_79553)">
<ellipse cx="8.74439" cy="17.3108" rx="6.82642" ry="8.40165" fill="#F985A1"/>
</g>
<g filter="url(#filter1_f_1741_79553)">
<ellipse cx="-0.095458" cy="6.09403" rx="6.82642" ry="8.40165" fill="#FBC7E9" fill-opacity="0.8"/>
</g>
<g filter="url(#filter2_f_1741_79553)">
<ellipse cx="16.4358" cy="19.0325" rx="6.82642" ry="8.40165" fill="#FDD6F4" fill-opacity="0.7"/>
</g>
</g>
<g style="mix-blend-mode:multiply" opacity="0.2">
<path fill-rule="evenodd" clip-rule="evenodd" d="M10 0.000976562V24.6147L18.6593 18.4616V6.15404L10 0.000976562Z" fill="#E75858"/>
</g>
<defs>
<filter id="filter0_f_1741_79553" x="-9.59127" y="-2.60006" width="36.6708" height="39.8222" filterUnits="userSpaceOnUse" color-interpolation-filters="sRGB">
<feFlood flood-opacity="0" result="BackgroundImageFix"/>
<feBlend mode="normal" in="SourceGraphic" in2="BackgroundImageFix" result="shape"/>
<feGaussianBlur stdDeviation="5.75462" result="effect1_foregroundBlur_1741_79553"/>
</filter>
<filter id="filter1_f_1741_79553" x="-18.4311" y="-13.8169" width="36.6708" height="39.8222" filterUnits="userSpaceOnUse" color-interpolation-filters="sRGB">
<feFlood flood-opacity="0" result="BackgroundImageFix"/>
<feBlend mode="normal" in="SourceGraphic" in2="BackgroundImageFix" result="shape"/>
<feGaussianBlur stdDeviation="5.75462" result="effect1_foregroundBlur_1741_79553"/>
</filter>
<filter id="filter2_f_1741_79553" x="-1.89986" y="-0.878379" width="36.6708" height="39.8222" filterUnits="userSpaceOnUse" color-interpolation-filters="sRGB">
<feFlood flood-opacity="0" result="BackgroundImageFix"/>
<feBlend mode="normal" in="SourceGraphic" in2="BackgroundImageFix" result="shape"/>
<feGaussianBlur stdDeviation="5.75462" result="effect1_foregroundBlur_1741_79553"/>
</filter>
</defs>
</svg>
