<svg width="20" height="25" viewBox="0 0 20 25" fill="none" xmlns="http://www.w3.org/2000/svg">
<path d="M1.72436 6.6609L10 0.780421L18.2756 6.6609V18.5714L10 24.4519L1.72436 18.5714V6.6609Z" fill="white" stroke="#EC9595" stroke-width="0.769231"/>
<mask id="mask0_1741_79582" style="mask-type:alpha" maskUnits="userSpaceOnUse" x="1" y="0" width="18" height="25">
<path d="M10 0.308594L18.6603 6.46237V18.7699L10 24.9237L1.33975 18.7699V6.46237L10 0.308594Z" fill="#D9D9D9"/>
</mask>
<g mask="url(#mask0_1741_79582)">
<g filter="url(#filter0_f_1741_79582)">
<ellipse cx="5.35186" cy="19.6267" rx="6.73077" ry="8.28393" fill="#68E6EE" fill-opacity="0.5"/>
</g>
<g filter="url(#filter1_f_1741_79582)">
<ellipse cx="3.58854" cy="10.0517" rx="6.66667" ry="8.20504" fill="#FBBDB1" fill-opacity="0.7"/>
</g>
<g filter="url(#filter2_f_1741_79582)">
<ellipse cx="17.0472" cy="18.1386" rx="6.73077" ry="8.20504" fill="#4C8BFF" fill-opacity="0.4"/>
</g>
</g>
<g style="mix-blend-mode:multiply" opacity="0.2">
<path fill-rule="evenodd" clip-rule="evenodd" d="M10 0.30957V24.9233L18.6593 18.7702V6.46264L10 0.30957Z" fill="#5877E8"/>
</g>
<defs>
<filter id="filter0_f_1741_79582" x="-10.2045" y="2.51718" width="31.1121" height="34.2186" filterUnits="userSpaceOnUse" color-interpolation-filters="sRGB">
<feFlood flood-opacity="0" result="BackgroundImageFix"/>
<feBlend mode="normal" in="SourceGraphic" in2="BackgroundImageFix" result="shape"/>
<feGaussianBlur stdDeviation="4.4128" result="effect1_foregroundBlur_1741_79582"/>
</filter>
<filter id="filter1_f_1741_79582" x="-11.9037" y="-6.97891" width="30.9832" height="34.0613" filterUnits="userSpaceOnUse" color-interpolation-filters="sRGB">
<feFlood flood-opacity="0" result="BackgroundImageFix"/>
<feBlend mode="normal" in="SourceGraphic" in2="BackgroundImageFix" result="shape"/>
<feGaussianBlur stdDeviation="4.4128" result="effect1_foregroundBlur_1741_79582"/>
</filter>
<filter id="filter2_f_1741_79582" x="1.49081" y="1.108" width="31.1121" height="34.0613" filterUnits="userSpaceOnUse" color-interpolation-filters="sRGB">
<feFlood flood-opacity="0" result="BackgroundImageFix"/>
<feBlend mode="normal" in="SourceGraphic" in2="BackgroundImageFix" result="shape"/>
<feGaussianBlur stdDeviation="4.4128" result="effect1_foregroundBlur_1741_79582"/>
</filter>
</defs>
</svg>
