<svg width="20" height="25" viewBox="0 0 20 25" fill="none" xmlns="http://www.w3.org/2000/svg">
<path d="M1.72436 6.66097L10 0.780423L18.2756 6.66097V18.5716L10 24.4522L1.72436 18.5716V6.66097Z" fill="white" stroke="#5DAE5B" stroke-width="0.769231"/>
<mask id="mask0_1741_79563" style="mask-type:alpha" maskUnits="userSpaceOnUse" x="1" y="0" width="18" height="25">
<path d="M10 0.308594L18.6603 6.46244V18.7701L10 24.924L1.33975 18.7701V6.46244L10 0.308594Z" fill="#D9D9D9"/>
</mask>
<g mask="url(#mask0_1741_79563)">
<g filter="url(#filter0_f_1741_79563)">
<ellipse cx="8.22485" cy="19.3178" rx="6.82642" ry="8.40174" fill="#68D8EE"/>
</g>
<g filter="url(#filter1_f_1741_79563)">
<ellipse cx="2.97876" cy="8.71034" rx="6.82642" ry="8.40174" fill="#D2F19F" fill-opacity="0.8"/>
</g>
<g filter="url(#filter2_f_1741_79563)">
<ellipse cx="15.9163" cy="21.0394" rx="6.82642" ry="8.40174" fill="#26E4B6" fill-opacity="0.5"/>
</g>
</g>
<g style="mix-blend-mode:multiply" opacity="0.2">
<path fill-rule="evenodd" clip-rule="evenodd" d="M10 0.310547V24.9245L18.6593 18.7714V6.46368L10 0.310547Z" fill="#11B6AC"/>
</g>
<defs>
<filter id="filter0_f_1741_79563" x="-10.1108" y="-0.593223" width="36.6708" height="39.8222" filterUnits="userSpaceOnUse" color-interpolation-filters="sRGB">
<feFlood flood-opacity="0" result="BackgroundImageFix"/>
<feBlend mode="normal" in="SourceGraphic" in2="BackgroundImageFix" result="shape"/>
<feGaussianBlur stdDeviation="5.75462" result="effect1_foregroundBlur_1741_79563"/>
</filter>
<filter id="filter1_f_1741_79563" x="-15.3569" y="-11.2006" width="36.6708" height="39.8222" filterUnits="userSpaceOnUse" color-interpolation-filters="sRGB">
<feFlood flood-opacity="0" result="BackgroundImageFix"/>
<feBlend mode="normal" in="SourceGraphic" in2="BackgroundImageFix" result="shape"/>
<feGaussianBlur stdDeviation="5.75462" result="effect1_foregroundBlur_1741_79563"/>
</filter>
<filter id="filter2_f_1741_79563" x="-2.41939" y="1.12846" width="36.6708" height="39.8222" filterUnits="userSpaceOnUse" color-interpolation-filters="sRGB">
<feFlood flood-opacity="0" result="BackgroundImageFix"/>
<feBlend mode="normal" in="SourceGraphic" in2="BackgroundImageFix" result="shape"/>
<feGaussianBlur stdDeviation="5.75462" result="effect1_foregroundBlur_1741_79563"/>
</filter>
</defs>
</svg>
