<svg width="23" height="22" viewBox="0 0 23 22" fill="none" xmlns="http://www.w3.org/2000/svg">
<path d="M21.5025 9.5651C21.7503 9.38052 21.9341 9.12302 22.0281 8.82871C22.1221 8.5344 22.1217 8.21803 22.0269 7.92398C21.9321 7.62992 21.7476 7.37291 21.4993 7.189C21.251 7.00508 20.9514 6.90348 20.6425 6.89843L14.6425 6.67177C14.613 6.66973 14.5847 6.65921 14.5611 6.64147C14.5374 6.62372 14.5194 6.59952 14.5092 6.57177L12.4358 0.971768C12.3317 0.686861 12.1425 0.440846 11.8938 0.267032C11.6452 0.0932176 11.3492 0 11.0458 0C10.7425 0 10.4464 0.0932176 10.1978 0.267032C9.94921 0.440846 9.76 0.686861 9.65583 0.971768L7.58916 6.59177C7.57895 6.61952 7.56093 6.64372 7.53727 6.66147C7.51361 6.67921 7.48533 6.68973 7.45583 6.69177L1.45583 6.91844C1.1469 6.92348 0.847297 7.02508 0.599027 7.209C0.350757 7.39291 0.166271 7.64992 0.071438 7.94398C-0.0233954 8.23803 -0.0238208 8.5544 0.0702212 8.84871C0.164263 9.14302 0.348057 9.40052 0.595832 9.5851L5.3025 13.2851C5.32605 13.3036 5.34366 13.3287 5.35314 13.3571C5.36262 13.3855 5.36355 13.4161 5.35583 13.4451L3.73583 19.1851C3.65188 19.4774 3.66002 19.7885 3.75912 20.076C3.85823 20.3635 4.0435 20.6135 4.28973 20.792C4.53596 20.9704 4.83119 21.0687 5.13527 21.0735C5.43934 21.0782 5.73749 20.9892 5.98916 20.8184L10.9625 17.4851C10.987 17.4682 11.0161 17.4591 11.0458 17.4591C11.0756 17.4591 11.1047 17.4682 11.1292 17.4851L16.1025 20.8184C16.3508 20.995 16.6479 21.0899 16.9525 21.0899C17.2571 21.0899 17.5542 20.995 17.8025 20.8184C18.0488 20.6416 18.2342 20.3929 18.3333 20.1063C18.4324 19.8198 18.4403 19.5096 18.3558 19.2184L16.7225 13.4584C16.7138 13.4295 16.7143 13.3986 16.7239 13.37C16.7334 13.3414 16.7516 13.3164 16.7758 13.2984L21.5025 9.5651Z" fill="#0059FF"/>
</svg>
