<svg width="1920" height="84" viewBox="0 0 1920 84" fill="none" xmlns="http://www.w3.org/2000/svg">
<g clip-path="url(#clip0_1560_80290)">
<rect width="1920" height="84" fill="#F5F8FF"/>
<g clip-path="url(#clip1_1560_80290)">
<path d="M1693.72 33.5997C1694.34 35.3157 1693.6 36.8995 1691.87 37.5193L1618.82 63.7264C1617.09 64.3463 1615.33 63.658 1614.72 61.9419L1597.82 14.8266C1597.2 13.1106 1597.91 10.8835 1599.64 10.2635L1672.69 -15.9436C1674.42 -16.5632 1676.2 -15.2317 1676.82 -13.5156L1693.72 33.5997Z" fill="url(#paint0_linear_1560_80290)"/>
<path d="M1663.05 42.6097L1643.23 49.7202L1648.24 63.6671L1668.06 56.5565L1663.05 42.6097Z" fill="url(#paint1_linear_1560_80290)"/>
<path d="M1676.02 56.7197L1675.9 56.3751C1675.31 54.741 1673.51 53.8926 1671.87 54.4807L1644.73 64.2151C1643.09 64.8031 1642.24 66.6039 1642.83 68.2386L1642.95 68.5832L1676.02 56.7197Z" fill="#196AFF"/>
<path d="M1602.98 13.1162L1671.61 -11.5043C1672.27 -11.7415 1673 -11.3978 1673.24 -10.7367L1684.69 21.1837C1684.93 21.8448 1684.58 22.573 1683.92 22.8101L1615.29 47.4307C1614.63 47.6678 1613.9 47.3242 1613.67 46.6631L1602.22 14.7427C1601.98 14.0816 1602.32 13.3534 1602.98 13.1162Z" fill="white" stroke="#337AFF" stroke-width="0.847809"/>
<path d="M1612.05 54.7048L1614.66 61.9967C1615.28 63.7128 1617.17 64.6035 1618.9 63.9859L1691.67 37.8798C1693.39 37.2626 1694.28 35.3705 1693.67 33.6545L1691.05 26.3626L1612.05 54.7048Z" fill="url(#paint2_linear_1560_80290)"/>
<path d="M1653.99 45.7968C1654.21 46.4087 1653.89 47.0822 1653.28 47.3022C1652.66 47.5222 1651.99 47.2055 1651.77 46.5936C1651.55 45.9817 1651.87 45.3082 1652.48 45.0882C1653.09 44.8682 1653.77 45.1849 1653.99 45.7968Z" fill="#0059FF"/>
<circle cx="1641.77" cy="13.3" r="7.75992" transform="rotate(-19.7354 1641.77 13.3)" fill="url(#paint3_linear_1560_80290)" fill-opacity="0.27"/>
<circle cx="1639.62" cy="23.205" r="7.75992" transform="rotate(-19.7354 1639.62 23.205)" fill="url(#paint4_linear_1560_80290)" fill-opacity="0.27"/>
<circle cx="1649.73" cy="19.5766" r="7.75992" transform="rotate(-19.7354 1649.73 19.5766)" fill="url(#paint5_linear_1560_80290)" fill-opacity="0.27"/>
</g>
<g clip-path="url(#clip2_1560_80290)">
<path d="M265.951 73.5732L260.191 83.9391" stroke="#CCCCCC" stroke-width="1.52705" stroke-miterlimit="10"/>
<path d="M257.175 89.3742C258.677 90.2089 260.571 89.6684 261.406 88.1669C262.24 86.6655 261.698 84.7716 260.196 83.9369C258.694 83.1022 256.8 83.6427 255.965 85.1442C255.131 86.6457 255.673 88.5395 257.175 89.3742Z" stroke="#CCCCCC" stroke-width="1.52705" stroke-miterlimit="10"/>
<path d="M258.705 20.5973L314.768 51.7479L293.581 89.8786C292.166 92.4255 289.025 93.3461 286.585 91.9903L239.42 65.7842C236.98 64.4285 236.103 61.275 237.518 58.728L258.705 20.5973Z" fill="url(#paint6_linear_1560_80290)" stroke="url(#paint7_linear_1560_80290)" stroke-width="1.52705"/>
<path fill-rule="evenodd" clip-rule="evenodd" d="M267.544 35.5538C267.851 35.0009 267.652 34.3037 267.099 33.9964C266.546 33.6892 265.849 33.8884 265.542 34.4413L253.018 56.9817C251.742 59.2769 252.569 62.1713 254.864 63.4466L283.456 79.3332C284.009 79.6404 284.706 79.4413 285.014 78.8884C285.321 78.3355 285.122 77.6382 284.569 77.331L255.977 61.4443C254.787 60.7835 254.359 59.2836 255.02 58.0943L258.499 51.8333L266.499 50.0937C267.71 49.8305 268.928 50.5071 269.344 51.674L271.099 56.5998C271.935 58.9442 274.437 60.2474 276.837 59.588L291.746 55.492C292.356 55.3244 292.714 54.6942 292.547 54.0842C292.379 53.4743 291.749 53.1157 291.139 53.2833L276.23 57.3793C274.986 57.721 273.69 57.0457 273.257 55.8308L271.501 50.905C270.699 48.6532 268.349 47.3475 266.013 47.8554L259.98 49.1671L267.544 35.5538Z" fill="url(#paint8_linear_1560_80290)"/>
<path d="M321.046 46.9386L259.472 12.7256C258.156 11.9947 256.498 12.468 255.767 13.7829L253.831 17.2666C253.101 18.5815 253.575 20.24 254.89 20.9709L316.465 55.1839C317.781 55.9149 319.439 55.4415 320.17 54.1267L322.106 50.6429C322.836 49.328 322.362 47.6696 321.046 46.9386Z" fill="#337AFF"/>
</g>
<g clip-path="url(#clip3_1560_80290)">
<path d="M322.208 63.9573L294.838 71.7676L297.506 81.0959L324.875 73.2856L322.208 63.9573Z" fill="#97BBFF"/>
<path d="M328.698 72.1876L324.869 73.2803L322.201 63.9521L326.031 62.8593C326.806 62.6379 327.615 63.0873 327.837 63.8631L329.702 70.3865C329.924 71.1623 329.475 71.9708 328.699 72.1922L328.698 72.1876Z" fill="#0C5FFF"/>
<path d="M297.498 81.0923L292.827 79.922L291.508 75.1864L294.833 71.7695L297.498 81.0923Z" fill="#97BBFF"/>
<path d="M292.831 79.924L289.347 79.0856C288.776 78.9325 288.568 78.216 288.974 77.7807L291.512 75.1884L292.831 79.924Z" fill="#0758FF"/>
</g>
<g clip-path="url(#clip4_1560_80290)">
<path d="M390.966 23.9278C390.967 23.1975 391.853 22.8355 392.366 23.3556L425.309 56.7743C425.818 57.291 425.452 58.1657 424.727 58.1658L406.781 58.1693C406.139 58.1695 405.522 58.4215 405.064 58.8713L392.254 71.4393C391.736 71.9474 390.862 71.5794 390.864 70.8539L390.966 23.9278Z" fill="url(#paint9_linear_1560_80290)" stroke="url(#paint10_linear_1560_80290)" stroke-width="1.63512"/>
<path fill-rule="evenodd" clip-rule="evenodd" d="M385.019 6.85333C370.327 12.8587 363.285 29.6372 369.291 44.329L367.021 45.257C360.503 29.3113 368.145 11.1009 384.091 4.58299C400.037 -1.93496 418.247 5.70775 424.765 21.6535L422.495 22.5815C416.489 7.88964 399.711 0.847907 385.019 6.85333Z" fill="url(#paint11_linear_1560_80290)"/>
<path fill-rule="evenodd" clip-rule="evenodd" d="M419.199 -6.9332L351.481 20.7471L350.553 18.4768L418.271 -9.20354L419.199 -6.9332Z" fill="#CCDEFF"/>
<path d="M350.407 16.7677L346.686 18.2886C346.248 18.4675 346.039 18.9674 346.217 19.405L347.738 23.1258C347.917 23.5635 348.417 23.7732 348.855 23.5943L352.576 22.0734C353.013 21.8945 353.223 21.3947 353.044 20.957L351.523 17.2363C351.344 16.7986 350.844 16.5888 350.407 16.7677Z" fill="#0059FF"/>
<path d="M383.545 3.22219L383.541 3.22381C382.077 3.82224 381.375 5.49421 381.974 6.95825L381.975 6.96221C382.574 8.42625 384.246 9.12796 385.71 8.52952L385.714 8.5279C387.178 7.92946 387.879 6.2575 387.281 4.79346L387.279 4.7895C386.681 3.32546 385.009 2.62375 383.545 3.22219Z" fill="#0059FF"/>
<path d="M366.368 40.3953L366.364 40.3969C364.9 40.9953 364.198 42.6673 364.796 44.1313L364.798 44.1353C365.397 45.5993 367.068 46.3011 368.533 45.7026L368.536 45.701C370.001 45.1026 370.702 43.4306 370.104 41.9666L370.102 41.9626C369.504 40.4986 367.832 39.7968 366.368 40.3953Z" fill="#0059FF"/>
<path d="M421.842 17.7195L421.838 17.7211C420.374 18.3196 419.673 19.9915 420.271 21.4556L420.273 21.4595C420.871 22.9236 422.543 23.6253 424.007 23.0268L424.011 23.0252C425.475 22.4268 426.177 20.7548 425.578 19.2908L425.577 19.2868C424.978 17.8228 423.306 17.1211 421.842 17.7195Z" fill="#0059FF"/>
</g>
<g clip-path="url(#clip5_1560_80290)">
<path d="M1546.4 101.051L1485.42 84.7126" stroke="#E6E6E6" stroke-width="1.72135" stroke-linecap="round" stroke-linejoin="round" stroke-dasharray="3.94 3.94"/>
<path d="M1483.17 84.1079L1480.91 83.5027L1481.51 81.2444" stroke="#E6E6E6" stroke-width="1.72135" stroke-linecap="round" stroke-linejoin="round" stroke-dasharray="3.94 3.94"/>
<path d="M1482.72 76.7277L1499.06 15.7522" stroke="#E6E6E6" stroke-width="1.72135" stroke-linecap="round" stroke-linejoin="round" stroke-dasharray="3.94 3.94"/>
<path d="M1499.67 13.4937L1500.27 11.2354L1502.53 11.8405" stroke="#E6E6E6" stroke-width="1.72135" stroke-linecap="round" stroke-linejoin="round" stroke-dasharray="3.94 3.94"/>
<path d="M1507.05 13.0508L1568.02 29.3891" stroke="#E6E6E6" stroke-width="1.72135" stroke-linecap="round" stroke-linejoin="round" stroke-dasharray="3.94 3.94"/>
<path d="M1570.28 29.9941L1572.54 30.5993L1571.93 32.8576" stroke="#E6E6E6" stroke-width="1.72135" stroke-linecap="round" stroke-linejoin="round" stroke-dasharray="3.94 3.94"/>
<path d="M1570.72 37.3748L1554.39 98.3503" stroke="#E6E6E6" stroke-width="1.72135" stroke-linecap="round" stroke-linejoin="round" stroke-dasharray="3.94 3.94"/>
<path d="M1558.49 34.8428L1510.3 21.9298C1507.78 21.2539 1505.19 22.7507 1504.51 25.273L1491.6 73.4651C1490.92 75.9874 1492.42 78.5799 1494.94 79.2558L1543.13 92.1688C1545.65 92.8446 1548.25 91.3478 1548.92 88.8256L1561.84 40.6334C1562.51 38.1112 1561.01 35.5186 1558.49 34.8428Z" fill="url(#paint12_linear_1560_80290)" stroke="url(#paint13_linear_1560_80290)" stroke-width="1.72135" stroke-miterlimit="10"/>
<path d="M1516.39 34.7877C1516.06 34.6988 1515.72 34.8957 1515.63 35.2274L1514.58 39.1434L1513.95 41.5033C1513.83 41.9237 1514.08 42.3558 1514.5 42.4684L1516.86 43.0989C1517.28 43.2115 1517.71 42.9621 1517.82 42.5417L1518.25 40.943C1518.36 40.5226 1518.79 40.2731 1519.22 40.3858L1527.37 42.5702C1527.79 42.6828 1528.04 43.1149 1527.92 43.5353L1521.01 69.3571C1520.89 69.7775 1520.46 70.027 1520.04 69.9143L1516.23 68.8941C1515.81 68.7815 1515.38 69.031 1515.27 69.4513L1514.47 72.4457C1514.35 72.8661 1514.6 73.2982 1515.02 73.4108L1519.59 74.635L1524.11 75.8452L1528.68 77.0694C1529.1 77.182 1529.53 76.9325 1529.64 76.5122L1530.44 73.5178C1530.56 73.0974 1530.31 72.6653 1529.89 72.5527L1526.08 71.5325C1525.66 71.4198 1525.41 70.9877 1525.52 70.5674L1532.44 44.7456C1532.55 44.3252 1532.99 44.0757 1533.41 44.1884L1541.56 46.3728C1541.98 46.4854 1542.23 46.9175 1542.12 47.3379L1541.69 48.9366C1541.58 49.357 1541.82 49.7891 1542.25 49.9017L1544.6 50.5322C1545.02 50.6449 1545.45 50.3954 1545.56 49.975L1546.2 47.6151L1547.25 43.6992C1547.33 43.3674 1547.14 43.0264 1546.81 42.9375L1516.39 34.7877Z" fill="#0059FF"/>
<path d="M1504.13 7.71892L1498.68 6.25824C1497.84 6.03297 1496.97 6.5319 1496.75 7.37265L1495.29 12.824C1495.06 13.6647 1495.56 14.5289 1496.4 14.7542L1501.85 16.2148C1502.69 16.4401 1503.56 15.9412 1503.78 15.1004L1505.24 9.64912C1505.47 8.80838 1504.97 7.94419 1504.13 7.71892Z" fill="#0059FF"/>
<path d="M1576.4 27.0832L1570.95 25.6225C1570.11 25.3972 1569.24 25.8962 1569.02 26.7369L1567.56 32.1882C1567.33 33.029 1567.83 33.8931 1568.67 34.1184L1574.12 35.5791C1574.96 35.8044 1575.83 35.3054 1576.05 34.4647L1577.51 29.0134C1577.74 28.1726 1577.24 27.3084 1576.4 27.0832Z" fill="#0059FF"/>
<path d="M1484.77 79.986L1479.32 78.5253C1478.47 78.3001 1477.61 78.799 1477.39 79.6397L1475.92 85.091C1475.7 85.9318 1476.2 86.796 1477.04 87.0212L1482.49 88.4819C1483.33 88.7072 1484.2 88.2083 1484.42 87.3675L1485.88 81.9162C1486.11 81.0755 1485.61 80.2113 1484.77 79.986Z" fill="#0059FF"/>
</g>
</g>
<defs>
<linearGradient id="paint0_linear_1560_80290" x1="1636.08" y1="-2.80856" x2="1655.25" y2="50.6543" gradientUnits="userSpaceOnUse">
<stop stop-color="#99BDFF"/>
<stop offset="1" stop-color="#C3D8FF"/>
</linearGradient>
<linearGradient id="paint1_linear_1560_80290" x1="1653.14" y1="46.1649" x2="1658.15" y2="60.1118" gradientUnits="userSpaceOnUse">
<stop stop-color="#7FACFF"/>
<stop offset="0.0001" stop-color="#5A94FF"/>
<stop offset="1" stop-color="#D6E4FF"/>
</linearGradient>
<linearGradient id="paint2_linear_1560_80290" x1="1651.55" y1="40.5337" x2="1655.28" y2="50.9328" gradientUnits="userSpaceOnUse">
<stop stop-color="#3F82FF"/>
<stop offset="1" stop-color="#5C95FF"/>
</linearGradient>
<linearGradient id="paint3_linear_1560_80290" x1="1641.77" y1="5.54007" x2="1641.77" y2="21.9086" gradientUnits="userSpaceOnUse">
<stop stop-color="#7FACFF"/>
<stop offset="1" stop-color="#7FACFF"/>
</linearGradient>
<linearGradient id="paint4_linear_1560_80290" x1="1639.62" y1="15.4451" x2="1639.62" y2="31.8137" gradientUnits="userSpaceOnUse">
<stop stop-color="#7FACFF"/>
<stop offset="1" stop-color="#7FACFF"/>
</linearGradient>
<linearGradient id="paint5_linear_1560_80290" x1="1649.73" y1="11.8167" x2="1649.73" y2="28.1853" gradientUnits="userSpaceOnUse">
<stop stop-color="#7FACFF"/>
<stop offset="1" stop-color="#7FACFF"/>
</linearGradient>
<linearGradient id="paint6_linear_1560_80290" x1="287.107" y1="35.5052" x2="243.904" y2="113.259" gradientUnits="userSpaceOnUse">
<stop stop-color="#E9F0FF"/>
<stop offset="1" stop-color="#B9D1FF"/>
<stop offset="1" stop-color="#E5EEFF"/>
</linearGradient>
<linearGradient id="paint7_linear_1560_80290" x1="287.107" y1="35.5052" x2="262.632" y2="79.5547" gradientUnits="userSpaceOnUse">
<stop stop-color="#CFE0FF"/>
<stop offset="1" stop-color="#CADDFF"/>
</linearGradient>
<linearGradient id="paint8_linear_1560_80290" x1="278.168" y1="75.9589" x2="272.09" y2="23.2309" gradientUnits="userSpaceOnUse">
<stop stop-color="#7FACFF"/>
<stop offset="1" stop-color="#B3CEFF"/>
</linearGradient>
<linearGradient id="paint9_linear_1560_80290" x1="390.157" y1="19.9505" x2="412.275" y2="74.0602" gradientUnits="userSpaceOnUse">
<stop stop-color="#5994FF"/>
<stop offset="1" stop-color="#C2D7FF"/>
</linearGradient>
<linearGradient id="paint10_linear_1560_80290" x1="390.157" y1="19.9505" x2="406.552" y2="60.0598" gradientUnits="userSpaceOnUse">
<stop stop-color="#649AFF"/>
<stop offset="1" stop-color="#337AFF" stop-opacity="0"/>
</linearGradient>
<linearGradient id="paint11_linear_1560_80290" x1="384.091" y1="4.58299" x2="395.893" y2="33.4553" gradientUnits="userSpaceOnUse">
<stop stop-color="#B2CDFF"/>
<stop offset="1" stop-color="#EDF3FF"/>
</linearGradient>
<linearGradient id="paint12_linear_1560_80290" x1="1534.4" y1="28.3863" x2="1513.8" y2="105.267" gradientUnits="userSpaceOnUse">
<stop stop-color="#ACC9FF"/>
<stop offset="1" stop-color="#D5E4FF"/>
</linearGradient>
<linearGradient id="paint13_linear_1560_80290" x1="1539.32" y1="21.6665" x2="1511.25" y2="126.417" gradientUnits="userSpaceOnUse">
<stop stop-color="#A0C1FF"/>
<stop offset="1" stop-color="#E0EBFF"/>
<stop offset="1" stop-color="#9CBFFF"/>
</linearGradient>
<clipPath id="clip0_1560_80290">
<rect width="1920" height="84" fill="white"/>
</clipPath>
<clipPath id="clip1_1560_80290">
<rect width="83.933" height="69.5203" fill="white" transform="translate(1596.51 11.386) rotate(-19.7354)"/>
</clipPath>
<clipPath id="clip2_1560_80290">
<rect width="75.8911" height="69.4806" fill="white" transform="translate(257.09 11.4021) rotate(29.0581)"/>
</clipPath>
<clipPath id="clip3_1560_80290">
<rect width="32.457" height="32.4497" fill="white" transform="translate(304.237 50.2642) rotate(29.0581)"/>
</clipPath>
<clipPath id="clip4_1560_80290">
<rect width="81.7527" height="68.6752" fill="white" transform="translate(345.892 18.6133) rotate(-22.2327)"/>
</clipPath>
<clipPath id="clip5_1560_80290">
<rect width="84.3463" height="84.3463" fill="white" transform="translate(1496.9 5.39917) rotate(15)"/>
</clipPath>
</defs>
</svg>
