<svg width="358" height="358" viewBox="0 0 358 358" fill="none" xmlns="http://www.w3.org/2000/svg">
<rect width="358" height="358" rx="12" fill="#F5F8FF"/>
<path fill-rule="evenodd" clip-rule="evenodd" d="M171.263 161.592L168.04 166.25H165.749C160.686 166.25 156.582 170.205 156.582 175.083V190.542C156.582 195.42 160.686 199.375 165.749 199.375H193.249C198.311 199.375 202.415 195.42 202.415 190.542V175.083C202.415 170.205 198.311 166.25 193.249 166.25H190.957L187.734 161.592C186.884 160.363 185.453 159.625 183.921 159.625H175.077C173.544 159.625 172.113 160.363 171.263 161.592ZM186.374 182.812C186.374 186.471 183.296 189.437 179.499 189.437C175.702 189.437 172.624 186.471 172.624 182.812C172.624 179.154 175.702 176.188 179.499 176.188C183.296 176.188 186.374 179.154 186.374 182.812ZM179.499 168.458C180.764 168.458 181.79 167.47 181.79 166.25C181.79 165.03 180.764 164.042 179.499 164.042C178.233 164.042 177.207 165.03 177.207 166.25C177.207 167.47 178.233 168.458 179.499 168.458Z" fill="#999999"/>
</svg>
