<svg xmlns="http://www.w3.org/2000/svg" width="100" height="100" viewBox="0 0 100 100" fill="none">
  <mask id="mask0_1779_7565" style="mask-type:alpha" maskUnits="userSpaceOnUse" x="0" y="0" width="100" height="100">
    <circle cx="50" cy="50" r="50" fill="#222222"/>
  </mask>
  <g mask="url(#mask0_1779_7565)">
    <circle cx="50" cy="50" r="50" fill="#CDD6DE"/>
    <path fill-rule="evenodd" clip-rule="evenodd" d="M87.4991 87.4204C87.4991 91.0421 86.3572 92.9688 82.8125 92.9688L51.5625 104.688L18.75 93.75C15.2063 93.75 14.0625 91.0393 14.0625 87.4214V82.6371C14.0625 75.8655 23.6186 69.2872 31.9507 67.0634C37.7248 65.521 41.2431 62.4935 42.1055 57.5695C36.61 52.3298 32.8903 42.8178 32.8903 34.7008C32.8931 22.7794 40.9004 15.625 50.7812 15.625C60.6621 15.625 68.6694 22.7823 68.6694 34.7018C68.6694 42.8226 64.9506 52.3327 59.457 57.5705C60.3185 62.4964 63.8368 65.5248 69.6118 67.0673C77.9477 69.291 87.5 75.8703 87.5 82.641V87.4252L87.4991 87.4204Z" fill="white"/>
  </g>
</svg>