<svg xmlns="http://www.w3.org/2000/svg" width="32" height="33" viewBox="0 0 32 33" fill="none">
  <path d="M24.32 12.4672L23.3264 12.58L24.32 12.4672ZM24.9163 17.7207L25.9099 17.6079L24.9163 17.7207ZM7.08502 17.7207L6.0914 17.6079L7.08502 17.7207ZM7.68127 12.4672L8.67489 12.58L7.68127 12.4672ZM5.93103 20.3298L5.16955 19.6816H5.16955L5.93103 20.3298ZM26.0703 20.3298L25.3088 20.978L26.0703 20.3298ZM19.0272 6.33187H18.0272C18.0272 6.75932 18.2989 7.1395 18.7033 7.27796L19.0272 6.33187ZM12.9741 6.33187L13.298 7.27796C13.7024 7.1395 13.9741 6.75932 13.9741 6.33187H12.9741ZM20.9371 27.5179C21.1309 27.0008 20.8687 26.4244 20.3516 26.2306C19.8344 26.0368 19.2581 26.2989 19.0643 26.8161L20.9371 27.5179ZM12.937 26.8161C12.7432 26.2989 12.1669 26.0368 11.6497 26.2306C11.1326 26.4244 10.8704 27.0008 11.0643 27.5179L12.937 26.8161ZM23.7036 23.5003H8.29774V25.5003H23.7036V23.5003ZM23.3264 12.58L23.9227 17.8334L25.9099 17.6079L25.3137 12.3545L23.3264 12.58ZM8.07864 17.8334L8.67489 12.58L6.68765 12.3545L6.0914 17.6079L8.07864 17.8334ZM6.69251 20.978C7.46226 20.0737 7.94769 18.9872 8.07864 17.8334L6.0914 17.6079C6.00757 18.3465 5.69488 19.0645 5.16955 19.6816L6.69251 20.978ZM23.9227 17.8334C24.0536 18.9872 24.539 20.0737 25.3088 20.978L26.8317 19.6816C26.3064 19.0645 25.9937 18.3465 25.9099 17.6079L23.9227 17.8334ZM8.29774 23.5003C7.42435 23.5003 6.80655 23.0684 6.5214 22.5659C6.24611 22.0808 6.25017 21.4977 6.69251 20.978L5.16955 19.6816C4.14919 20.8803 4.11768 22.3824 4.78196 23.553C5.43638 24.7062 6.73328 25.5003 8.29774 25.5003V23.5003ZM23.7036 25.5003C25.268 25.5003 26.5649 24.7062 27.2193 23.553C27.8836 22.3824 27.8521 20.8803 26.8317 19.6816L25.3088 20.978C25.7511 21.4977 25.7552 22.0808 25.4799 22.5659C25.1948 23.0684 24.577 23.5003 23.7036 23.5003V25.5003ZM20.0272 6.33187V6.19359H18.0272V6.33187H20.0272ZM25.3137 12.3545C24.9413 9.074 22.5081 6.46667 19.3512 5.38579L18.7033 7.27796C21.2595 8.15316 23.0557 10.195 23.3264 12.58L25.3137 12.3545ZM13.9741 6.33187V6.19359H11.9741V6.33187H13.9741ZM8.67489 12.58C8.94558 10.195 10.7418 8.15316 13.298 7.27796L12.6501 5.38579C9.49324 6.46667 7.05997 9.074 6.68765 12.3545L8.67489 12.58ZM16.0007 4.16699C17.1199 4.16699 18.0272 5.07433 18.0272 6.19359H20.0272C20.0272 3.96976 18.2245 2.16699 16.0007 2.16699V4.16699ZM16.0007 2.16699C13.7768 2.16699 11.9741 3.96976 11.9741 6.19359H13.9741C13.9741 5.07433 14.8814 4.16699 16.0007 4.16699V2.16699ZM19.0643 26.8161C18.634 27.9642 17.4468 28.8337 16.0007 28.8337V30.8337C18.248 30.8337 20.2028 29.477 20.9371 27.5179L19.0643 26.8161ZM16.0007 28.8337C14.5545 28.8337 13.3673 27.9642 12.937 26.8161L11.0643 27.5179C11.7985 29.477 13.7533 30.8337 16.0007 30.8337V28.8337Z" fill="#030303"/>
</svg>