<svg xmlns="http://www.w3.org/2000/svg" width="24" height="24" viewBox="0 0 24 24" fill="none">
  <path fill-rule="evenodd" clip-rule="evenodd" d="M2.25 2C2.25 1.58579 2.58579 1.25 3 1.25H21C21.3053 1.25 21.5801 1.43503 21.6949 1.71787C21.8097 2.00072 21.7417 2.32495 21.5228 2.53775L16.2902 7.625L21.5228 12.7123C21.7417 12.9251 21.8097 13.2493 21.6949 13.5321C21.5801 13.815 21.3053 14 21 14H3.75V22C3.75 22.4142 3.41421 22.75 3 22.75C2.58579 22.75 2.25 22.4142 2.25 22V2ZM3.75 12.5H19.1527L14.6915 8.16275C14.5462 8.02154 14.4643 7.82758 14.4643 7.625C14.4643 7.42242 14.5462 7.22846 14.6915 7.08725L19.1527 2.75H3.75V12.5Z" fill="#1A1A1A"/>
</svg>