<svg xmlns="http://www.w3.org/2000/svg" width="16" height="17" viewBox="0 0 16 17" fill="none">
  <path fill-rule="evenodd" clip-rule="evenodd" d="M1.5 1.83325C1.5 1.55711 1.72386 1.33325 2 1.33325H14C14.2035 1.33325 14.3867 1.4566 14.4633 1.64517C14.5398 1.83373 14.4945 2.04988 14.3485 2.19175L10.8601 5.58325L14.3485 8.97475C14.4945 9.11662 14.5398 9.33277 14.4633 9.52134C14.3867 9.7099 14.2035 9.83325 14 9.83325H2.5V15.1666C2.5 15.4427 2.27614 15.6666 2 15.6666C1.72386 15.6666 1.5 15.4427 1.5 15.1666V1.83325ZM2.5 8.83325H12.7684L9.79432 5.94175C9.69749 5.84761 9.64286 5.7183 9.64286 5.58325C9.64286 5.4482 9.69749 5.3189 9.79432 5.22475L12.7684 2.33325H2.5V8.83325Z" fill="#808080"/>
</svg>