<svg xmlns="http://www.w3.org/2000/svg" width="24" height="24" viewBox="0 0 24 24" fill="none">
  <path d="M12.0156 1.99902C6.49263 1.99902 2.01562 6.47602 2.01562 11.999C2.01562 13.271 2.27762 14.56 2.73462 15.718L3.51562 17.311C4.01063 18.34 3.83663 19.31 3.17163 20.499C2.80463 21.157 3.26262 21.95 4.01562 21.968C5.03262 21.991 6.72262 21.667 8.01562 21.187C9.20963 21.738 10.6836 21.999 12.0156 21.999C17.5386 21.999 22.0156 17.522 22.0156 11.999C22.0156 6.47602 17.5386 1.99902 12.0156 1.99902ZM12.0156 3.99902C16.4336 3.99902 20.0156 7.58102 20.0156 11.999C20.0156 16.417 16.4336 19.999 12.0156 19.999C10.8656 19.999 9.42062 19.703 8.51562 19.218C8.24762 19.074 7.91962 19.036 7.64062 19.155C7.00262 19.428 6.35862 19.633 5.60962 19.78C5.90962 18.729 5.82063 17.526 5.29663 16.437L4.54663 14.905C4.21363 14.053 4.01562 13.019 4.01562 11.999C4.01562 7.58102 7.59762 3.99902 12.0156 3.99902ZM8.01562 10.999C7.46362 10.999 7.01562 11.447 7.01562 11.999C7.01562 12.551 7.46362 12.999 8.01562 12.999C8.56763 12.999 9.01562 12.551 9.01562 11.999C9.01562 11.447 8.56763 10.999 8.01562 10.999ZM12.0156 10.999C11.4636 10.999 11.0156 11.447 11.0156 11.999C11.0156 12.551 11.4636 12.999 12.0156 12.999C12.5676 12.999 13.0156 12.551 13.0156 11.999C13.0156 11.447 12.5676 10.999 12.0156 10.999ZM16.0156 10.999C15.4636 10.999 15.0156 11.447 15.0156 11.999C15.0156 12.551 15.4636 12.999 16.0156 12.999C16.5676 12.999 17.0156 12.551 17.0156 11.999C17.0156 11.447 16.5676 10.999 16.0156 10.999Z" fill="#2A343D"/>
</svg>