<svg xmlns="http://www.w3.org/2000/svg" width="32" height="32" viewBox="0 0 32 32" fill="none">
  <path d="M16.0208 2.66528C8.65683 2.66528 2.6875 8.63462 2.6875 15.9986C2.6875 17.6946 3.03683 19.4133 3.64616 20.9573L4.6875 23.0813C5.3475 24.4533 5.11551 25.7466 4.22884 27.332C3.73951 28.2093 4.35017 29.2666 5.35417 29.2906C6.71017 29.3213 8.9635 28.8893 10.6875 28.2493C12.2795 28.984 14.2448 29.332 16.0208 29.332C23.3848 29.332 29.3542 23.3626 29.3542 15.9986C29.3542 8.63462 23.3848 2.66528 16.0208 2.66528ZM16.0208 5.33195C21.9115 5.33195 26.6875 10.108 26.6875 15.9986C26.6875 21.8893 21.9115 26.6653 16.0208 26.6653C14.4875 26.6653 12.5608 26.2706 11.3542 25.624C10.9968 25.432 10.5595 25.3813 10.1875 25.54C9.33683 25.904 8.47816 26.1773 7.47949 26.3733C7.87949 24.972 7.76084 23.368 7.06217 21.916L6.06217 19.8733C5.61817 18.7373 5.35417 17.3586 5.35417 15.9986C5.35417 10.108 10.1302 5.33195 16.0208 5.33195ZM10.6875 14.6653C9.9515 14.6653 9.35417 15.2626 9.35417 15.9986C9.35417 16.7346 9.9515 17.332 10.6875 17.332C11.4235 17.332 12.0208 16.7346 12.0208 15.9986C12.0208 15.2626 11.4235 14.6653 10.6875 14.6653ZM16.0208 14.6653C15.2848 14.6653 14.6875 15.2626 14.6875 15.9986C14.6875 16.7346 15.2848 17.332 16.0208 17.332C16.7568 17.332 17.3542 16.7346 17.3542 15.9986C17.3542 15.2626 16.7568 14.6653 16.0208 14.6653ZM21.3542 14.6653C20.6182 14.6653 20.0208 15.2626 20.0208 15.9986C20.0208 16.7346 20.6182 17.332 21.3542 17.332C22.0902 17.332 22.6875 16.7346 22.6875 15.9986C22.6875 15.2626 22.0902 14.6653 21.3542 14.6653Z" fill="white"/>
</svg>