<svg xmlns="http://www.w3.org/2000/svg" width="28" height="28" viewBox="0 0 28 28" fill="none">
  <g clip-path="url(#clip0_1660_2351)">
    <circle cx="14" cy="14" r="14" fill="#B3B3B3"/>
    <path d="M7.56704 13.433C7.25268 13.7473 7.24935 14.256 7.55956 14.5744L7.64583 14.663C7.96132 14.9869 8.4805 14.9909 8.80097 14.672L13.125 10.3688L13.125 20.1875C13.125 20.6362 13.4888 21 13.9375 21L14.0625 21C14.5112 21 14.875 20.6362 14.875 20.1875L14.875 10.3688L19.1762 14.6754C19.4937 14.9933 20.0089 14.9932 20.3263 14.6752L20.4267 14.5745C20.7434 14.2571 20.7431 13.7431 20.4261 13.4261L14 7L7.56704 13.433Z" fill="white"/>
  </g>
  <defs>
    <clipPath id="clip0_1660_2351">
      <rect width="28" height="28" fill="white" transform="translate(0 28) rotate(-90)"/>
    </clipPath>
  </defs>
</svg>