<svg xmlns="http://www.w3.org/2000/svg" width="24" height="24" viewBox="0 0 24 24" fill="none">
  <path d="M17.9338 5.66105C16.3858 4.11298 13.8759 4.11298 12.3278 5.66105L10.6611 7.32773C10.3682 7.62062 9.89335 7.62062 9.60046 7.32773C9.30757 7.03483 9.30757 6.55996 9.60046 6.26707L11.2671 4.60039C13.401 2.46654 16.8607 2.46654 18.9945 4.60039C21.1284 6.73424 21.1284 10.1939 18.9945 12.3278L17.3278 13.9944C17.0349 14.2873 16.5601 14.2873 16.2672 13.9944C15.9743 13.7015 15.9743 13.2267 16.2672 12.9338L17.9338 11.2671C19.4819 9.71903 19.4819 7.20912 17.9338 5.66105Z" fill="#1A1A1A"/>
  <path d="M14.4492 9.1457C14.7421 9.43859 14.7421 9.91347 14.4492 10.2064L10.2066 14.449C9.9137 14.7419 9.43883 14.7419 9.14594 14.449C8.85304 14.1561 8.85304 13.6812 9.14594 13.3883L13.3886 9.1457C13.6815 8.8528 14.1563 8.8528 14.4492 9.1457Z" fill="#1A1A1A"/>
  <path d="M11.2671 17.9337C9.71903 19.4818 7.20912 19.4818 5.66105 17.9337C4.11298 16.3856 4.11298 13.8757 5.66105 12.3277L7.32773 10.661C7.62062 10.3681 7.62062 9.89321 7.32773 9.60032C7.03483 9.30742 6.55996 9.30742 6.26707 9.60032L4.60039 11.267C2.46654 13.4008 2.46654 16.8605 4.60039 18.9944C6.73424 21.1282 10.1939 21.1282 12.3278 18.9944L13.9944 17.3277C14.2873 17.0348 14.2873 16.5599 13.9944 16.267C13.7015 15.9741 13.2267 15.9741 12.9338 16.267L11.2671 17.9337Z" fill="#1A1A1A"/>
</svg>