<svg xmlns="http://www.w3.org/2000/svg" width="32" height="32" viewBox="0 0 32 32" fill="none">
  <path d="M7.99999 3.98755C5.79066 3.98755 4 5.77835 4 7.98755V10.6542V22.6542C4 25.5995 6.388 27.9875 9.33333 27.9875H22.6666C25.612 27.9875 28 25.5995 28 22.6542V10.6542C28 9.91781 27.4026 9.32088 26.6666 9.32088H20C18.9933 9.32088 18.6693 8.99435 17.8747 7.40421C16.6707 4.99435 15.66 3.98755 13.3333 3.98755H7.99999ZM7.99999 6.65421H13.3333C14.34 6.65421 14.664 6.98075 15.4586 8.57088C15.632 8.91901 15.6906 9.01781 15.8613 9.30848L10.6253 9.32088C9.88798 9.32088 9.29199 9.91781 9.29199 10.6542C9.29199 11.3906 9.88798 11.9875 10.6253 11.9875H20H25.3333V22.6542C25.3333 24.1275 24.14 25.3209 22.6666 25.3209H9.33333C7.85999 25.3209 6.66666 24.1275 6.66666 22.6542V10.6542V7.98755C6.66666 7.25115 7.264 6.65421 7.99999 6.65421Z" fill="#4D4D4D"/>
</svg>