<svg xmlns="http://www.w3.org/2000/svg" width="24" height="25" viewBox="0 0 24 25" fill="none">
  <path d="M11 3.49072C8.7909 3.49072 7 5.28172 7 7.49072H6C3.7909 7.49072 2 9.28172 2 11.4907V17.4907C2 19.6997 3.7909 21.4907 6 21.4907H18C20.2091 21.4907 22 19.6997 22 17.4907V11.4907C22 9.28172 20.2091 7.49072 18 7.49072H17C17 5.28172 15.2091 3.49072 13 3.49072H11ZM11 5.49072H13C14.1046 5.49072 15 6.38572 15 7.49072H9C9 6.38572 9.8954 5.49072 11 5.49072ZM6 9.49072H18C19.1046 9.49072 20 10.3857 20 11.4907V11.7717L14.6562 13.5527C13.2212 14.0317 10.7788 14.0317 9.3438 13.5527L4 11.7717V11.4907C4 10.3857 4.8954 9.49072 6 9.49072ZM4 13.8657L8.7188 15.4597C10.5643 16.0747 13.4357 16.0747 15.2812 15.4597L20 13.8657V17.4907C20 18.5957 19.1046 19.4907 18 19.4907H6C4.8954 19.4907 4 18.5957 4 17.4907V13.8657Z" fill="#B3B3B3"/>
</svg>