<svg xmlns="http://www.w3.org/2000/svg" width="24" height="24" viewBox="0 0 24 24" fill="none">
  <path fill-rule="evenodd" clip-rule="evenodd" d="M16.5863 2.06212C17.6692 0.979294 19.4248 0.979294 20.5076 2.06212L21.9379 3.49242C23.0207 4.57524 23.0207 6.33085 21.9379 7.41367L13.8329 15.5187C13.4086 15.9429 12.8583 16.2181 12.2644 16.3029L9.26074 16.732C8.09829 16.8981 7.10191 15.9017 7.26797 14.7393L7.69706 11.7356C7.78191 11.1417 8.05709 10.5914 8.48131 10.1671L16.5863 2.06212ZM19.4469 3.12278C18.9499 2.62574 18.144 2.62574 17.647 3.12278L16.474 4.29574C16.4948 4.4005 16.527 4.53051 16.5767 4.67951C16.723 5.1186 17.0235 5.72949 17.647 6.35301C18.2705 6.97654 18.8814 7.27698 19.3205 7.42334C19.4695 7.47301 19.5995 7.50517 19.7043 7.52597L20.8772 6.35301C21.3743 5.85597 21.3743 5.05011 20.8772 4.55308L19.4469 3.12278ZM18.5095 8.72075C17.9356 8.48357 17.2566 8.08393 16.5863 7.41367C15.9161 6.74342 15.5164 6.06445 15.2793 5.49052L9.54197 11.2278C9.34725 11.4225 9.22093 11.6752 9.18199 11.9478L8.7529 14.9514C8.72825 15.1239 8.87611 15.2717 9.04861 15.2471L12.0522 14.818C12.3248 14.7791 12.5775 14.6528 12.7722 14.458L18.5095 8.72075ZM16.4364 4.02099L16.4364 4.02007L16.4363 4.01789L16.4363 4.01499C16.4363 4.01413 16.4363 4.01385 16.4363 4.01415L16.4363 4.01498C16.4363 4.015 16.4363 4.01503 16.4363 4.01505M16.4364 4.02099C16.4364 4.02122 16.4364 4.02145 16.4364 4.02168C16.4364 4.0218 16.4364 4.02192 16.4364 4.02204C16.4364 4.02204 16.4364 4.02203 16.4364 4.02203L16.4364 4.02168V4.02135L16.4364 4.02099ZM6 2.75C4.20507 2.75 2.75 4.20507 2.75 6V18C2.75 19.7949 4.20507 21.25 6 21.25H18C19.7949 21.25 21.25 19.7949 21.25 18V12C21.25 11.5858 21.5858 11.25 22 11.25C22.4142 11.25 22.75 11.5858 22.75 12V18C22.75 20.6234 20.6234 22.75 18 22.75H6C3.37665 22.75 1.25 20.6234 1.25 18V6C1.25 3.37665 3.37665 1.25 6 1.25H12C12.4142 1.25 12.75 1.58579 12.75 2C12.75 2.41421 12.4142 2.75 12 2.75H6Z" fill="#030303"/>
</svg>