<svg xmlns="http://www.w3.org/2000/svg" width="32" height="33" viewBox="0 0 32 33" fill="none">
  <path d="M24.7445 26.5654C23.4199 23.0227 20.0042 20.5003 15.9993 20.5003C11.9945 20.5003 8.57881 23.0227 7.25424 26.5654M24.7445 26.5654C27.5556 24.1209 29.3327 20.5181 29.3327 16.5003C29.3327 9.13653 23.3631 3.16699 15.9993 3.16699C8.63555 3.16699 2.66602 9.13653 2.66602 16.5003C2.66602 20.5181 4.44315 24.1209 7.25424 26.5654M24.7445 26.5654C22.4034 28.6012 19.3453 29.8337 15.9993 29.8337C12.6534 29.8337 9.59527 28.6012 7.25424 26.5654M19.9993 12.5003C19.9993 14.7095 18.2085 16.5003 15.9993 16.5003C13.7902 16.5003 11.9993 14.7095 11.9993 12.5003C11.9993 10.2912 13.7902 8.50033 15.9993 8.50033C18.2085 8.50033 19.9993 10.2912 19.9993 12.5003Z" stroke="#030303" stroke-width="2" stroke-linejoin="round"/>
</svg>