<svg xmlns="http://www.w3.org/2000/svg" width="32" height="33" viewBox="0 0 32 33" fill="none">
  <path d="M9.9974 4.48755C5.94726 4.48755 2.66406 7.77022 2.66406 11.8209C2.66406 16.0662 5.08206 20.0716 9.08073 23.7382C10.4455 24.9889 11.915 26.0862 13.3723 27.0716C13.8831 27.4156 14.3609 27.7276 14.7891 27.9876C15.0502 28.1463 15.2223 28.2609 15.3307 28.3209C15.7334 28.5449 16.2614 28.5449 16.6641 28.3209C16.7725 28.2609 16.9446 28.1463 17.2057 27.9876C17.6339 27.7276 18.1117 27.4156 18.6225 27.0716C20.0798 26.0862 21.5493 24.9889 22.9141 23.7382C26.9127 20.0716 29.3307 16.0662 29.3307 11.8209C29.3307 7.77022 26.0475 4.48755 21.9974 4.48755C19.6971 4.48755 17.4513 5.7409 16.039 7.57024C14.6619 5.7089 12.4239 4.48755 9.9974 4.48755ZM9.9974 7.15422C11.6159 7.15422 13.1274 7.97557 13.9974 9.23691C14.0819 9.35958 14.7485 10.3396 14.8723 10.5289C15.3882 11.3196 16.5391 11.3436 17.0807 10.5702C17.2125 10.3822 17.9062 9.40622 17.9974 9.27955C18.9055 8.01022 20.495 7.15422 21.9974 7.15422C24.5747 7.15422 26.6641 9.24356 26.6641 11.8209C26.6641 15.1582 24.5821 18.5276 21.0807 21.7382C19.8205 22.8929 18.4775 23.9463 17.1225 24.8623C16.7127 25.1396 16.3473 25.3556 15.9974 25.5703C15.6475 25.3556 15.2821 25.1396 14.8723 24.8623C13.5173 23.9463 12.1743 22.8929 10.9141 21.7382C7.41273 18.5276 5.33073 15.1582 5.33073 11.8209C5.33073 9.24356 7.42006 7.15422 9.9974 7.15422Z" fill="white"/>
</svg>