<svg xmlns="http://www.w3.org/2000/svg" width="22" height="22" viewBox="0 0 22 22" fill="none">
  <path d="M14.0573 10.0753L10.5051 7.70637C10.3376 7.59462 10.1429 7.53048 9.94181 7.52081C9.74069 7.51114 9.54073 7.55631 9.36329 7.65147C9.18585 7.74664 9.03761 7.88823 8.93441 8.06112C8.8312 8.234 8.77691 8.43169 8.77735 8.63303V13.3697C8.77732 13.5709 8.8319 13.7683 8.93526 13.9408C9.03863 14.1134 9.18691 14.2547 9.36427 14.3496C9.54164 14.4445 9.74144 14.4894 9.94236 14.4797C10.1433 14.4699 10.3378 14.4058 10.5051 14.2941L14.0573 11.9253C14.2095 11.8238 14.3343 11.6863 14.4206 11.5251C14.5069 11.3638 14.552 11.1837 14.552 11.0008C14.552 10.8179 14.5069 10.6378 14.4206 10.4766C14.3343 10.3153 14.2095 10.1767 14.0573 10.0753Z" stroke="#1A1A1A" stroke-width="1.5" stroke-linecap="round" stroke-linejoin="round"/>
  <path fill-rule="evenodd" clip-rule="evenodd" d="M11 1.75C8.54675 1.75 6.19397 2.72455 4.45926 4.45926C2.72455 6.19397 1.75 8.54675 1.75 11C1.75 12.2147 1.98926 13.4176 2.45411 14.5398C2.91897 15.6621 3.60032 16.6818 4.45926 17.5407C5.3182 18.3997 6.33792 19.081 7.46018 19.5459C8.58244 20.0107 9.78527 20.25 11 20.25C12.2147 20.25 13.4176 20.0107 14.5398 19.5459C15.6621 19.081 16.6818 18.3997 17.5407 17.5407C18.3997 16.6818 19.081 15.6621 19.5459 14.5398C20.0107 13.4176 20.25 12.2147 20.25 11C20.25 8.54675 19.2754 6.19397 17.5407 4.45926C15.806 2.72455 13.4533 1.75 11 1.75ZM3.3986 3.3986C5.41462 1.38259 8.14892 0.25 11 0.25C13.8511 0.25 16.5854 1.38259 18.6014 3.3986C20.6174 5.41462 21.75 8.14892 21.75 11C21.75 12.4117 21.4719 13.8096 20.9317 15.1138C20.3915 16.4181 19.5996 17.6032 18.6014 18.6014C17.6032 19.5996 16.4181 20.3915 15.1138 20.9317C13.8096 21.4719 12.4117 21.75 11 21.75C9.58829 21.75 8.1904 21.4719 6.88615 20.9317C5.5819 20.3915 4.39683 19.5996 3.3986 18.6014C2.40037 17.6032 1.60853 16.4181 1.06829 15.1138C0.528057 13.8096 0.25 12.4117 0.25 11C0.25 8.14892 1.38259 5.41462 3.3986 3.3986Z" fill="#1A1A1A"/>
</svg>