<svg xmlns="http://www.w3.org/2000/svg" width="32" height="32" viewBox="0 0 32 32" fill="none">
  <path d="M27.3126 3.98137C26.8286 3.8627 26.2784 3.88138 25.6043 4.06405C21.6987 5.12272 6.1735 10.168 4.8959 10.7334C3.5035 11.3494 2.70003 12.4347 2.68763 13.8587C2.6711 15.7627 4.20577 17.2574 6.02097 17.1934C6.07937 17.192 8.32536 17.2227 9.6043 17.2361C9.6043 17.2361 10.7459 22.9441 10.7735 23.0121C11.1067 23.8307 11.8883 24.0747 12.5626 23.7801L16.3543 22.112C16.7835 22.5347 19.6694 25.3227 19.9792 25.572C20.9027 26.3134 21.7007 26.5467 22.6876 26.572C24.2766 26.6134 25.6646 25.6787 26.3959 24.1547C26.855 23.1987 28.9946 9.81071 29.1876 8.48271C29.4942 6.37471 29.4248 5.54671 28.5626 4.68937C28.216 4.34537 27.7967 4.0987 27.3126 3.98137ZM26.6875 6.5667C26.6875 6.5667 26.7523 6.80269 26.5626 8.1067C25.8838 12.776 24.2751 22.3294 23.9376 23.112C23.7071 23.648 23.2451 23.9187 22.7292 23.904C22.2752 23.892 22.0492 23.8121 21.6459 23.4881C21.4384 23.3214 20.505 22.4347 19.1876 21.1534C19.1711 21.1374 16.5602 18.5894 16.5602 18.5894C16.3056 18.336 16.0664 18.1854 15.5652 18.18C15.2738 18.18 14.8891 18.4014 14.8891 18.4014L12.884 20.0987L12.1876 16.6934L20.5626 13.1094C21.2391 12.8187 21.5619 12.0347 21.271 11.3587C20.9802 10.6814 20.1975 10.3587 19.521 10.6494L10.4376 14.568C9.92043 14.5654 6.06643 14.5214 5.93763 14.5267C5.64097 14.536 5.35097 14.2454 5.3543 13.8587C5.35697 13.5494 5.49336 13.3654 5.97923 13.1507C7.10536 12.6521 22.4431 7.67736 26.2287 6.65202C26.5858 6.55469 26.6875 6.5667 26.6875 6.5667Z" fill="#4D4D4D"/>
</svg>