<svg xmlns="http://www.w3.org/2000/svg" width="24" height="24" viewBox="0 0 24 24" fill="none">
  <mask id="mask0_2489_31028" style="mask-type:alpha" maskUnits="userSpaceOnUse" x="0" y="0" width="24" height="24">
    <circle cx="12" cy="12" r="12" fill="#222222"/>
  </mask>
  <g mask="url(#mask0_2489_31028)">
    <circle cx="12" cy="12" r="12" fill="#CDD6DE"/>
    <path fill-rule="evenodd" clip-rule="evenodd" d="M20.9998 20.9809C20.9998 21.8501 20.7257 22.3125 19.875 22.3125L12.375 25.125L4.5 22.5C3.6495 22.5 3.375 21.8494 3.375 20.9811V19.8329C3.375 18.2077 5.66845 16.6289 7.66816 16.0952C9.05395 15.725 9.89833 14.9984 10.1053 13.8167C8.78641 12.5592 7.89366 10.2763 7.89366 8.32819C7.89434 5.46705 9.81609 3.75 12.1875 3.75C14.5589 3.75 16.4807 5.46774 16.4807 8.32842C16.4807 10.2774 15.5881 12.5598 14.2697 13.8169C14.4764 14.9991 15.3208 15.726 16.7068 16.0961C18.7075 16.6298 21 18.2089 21 19.8338V20.9821L20.9998 20.9809Z" fill="white"/>
  </g>
</svg>