<svg xmlns="http://www.w3.org/2000/svg" width="18" height="18" viewBox="0 0 18 18" fill="none">
  <path d="M16.5325 11.7926L11.4471 16.605C10.5196 17.4819 9.02583 16.8034 9.02583 15.5059L9.02583 12.9304C-0.364716 12.9304 1.07998 0.999999 1.07998 0.999999C1.07998 0.999999 3.96938 8.45653 9.02583 8.45653L9.02583 5.88179C9.02583 4.58435 10.5204 3.90581 11.4464 4.78195L16.5318 9.59439C16.6793 9.7341 16.7972 9.90394 16.8778 10.0931C16.9584 10.2824 17 10.4868 17 10.6935C17 10.9002 16.9584 11.1046 16.8778 11.2938C16.7972 11.483 16.6801 11.6529 16.5325 11.7926Z" stroke="#999999" stroke-width="1.5" stroke-linecap="round" stroke-linejoin="round"/>
</svg>