<svg xmlns="http://www.w3.org/2000/svg" width="32" height="32" viewBox="0 0 32 32" fill="none">
  <path d="M22.6615 2.60425C20.4521 2.60425 18.6615 4.39491 18.6615 6.60425C18.6615 6.94691 18.7161 7.37358 18.7974 7.69092L11.6601 12.6722C11.0214 12.2402 10.1561 11.9376 9.32812 11.9376C7.11879 11.9376 5.32812 13.7282 5.32812 15.9376C5.32812 18.1469 7.11879 19.9376 9.32812 19.9376C10.1708 19.9376 11.0028 19.6243 11.6481 19.1803L18.8001 24.2016C18.7121 24.5309 18.6615 24.9136 18.6615 25.2709C18.6615 27.4802 20.4521 29.2709 22.6615 29.2709C24.8708 29.2709 26.6615 27.4802 26.6615 25.2709C26.6615 23.0616 24.8708 21.2709 22.6615 21.2709C21.8188 21.2709 20.9975 21.5749 20.3535 22.0203L13.1828 17.0029C13.2694 16.6736 13.3281 16.2949 13.3281 15.9376C13.3281 15.5802 13.2775 15.1949 13.1895 14.8656L20.3428 9.86292C20.9814 10.2936 21.8335 10.6042 22.6615 10.6042C24.8708 10.6042 26.6615 8.81358 26.6615 6.60425C26.6615 4.39491 24.8708 2.60425 22.6615 2.60425ZM22.6615 5.27091C23.3975 5.27091 23.9948 5.86825 23.9948 6.60425C23.9948 7.34025 23.3975 7.93758 22.6615 7.93758C21.9255 7.93758 21.3281 7.34025 21.3281 6.60425C21.3281 5.86825 21.9255 5.27091 22.6615 5.27091ZM9.32812 14.6042C10.0641 14.6042 10.6615 15.2016 10.6615 15.9376C10.6615 16.6736 10.0641 17.2709 9.32812 17.2709C8.59213 17.2709 7.99479 16.6736 7.99479 15.9376C7.99479 15.2016 8.59213 14.6042 9.32812 14.6042ZM22.6615 23.9376C23.3975 23.9376 23.9948 24.5349 23.9948 25.2709C23.9948 26.0069 23.3975 26.6042 22.6615 26.6042C21.9255 26.6042 21.3281 26.0069 21.3281 25.2709C21.3281 24.5349 21.9255 23.9376 22.6615 23.9376Z" fill="#4D4D4D"/>
</svg>