<svg xmlns="http://www.w3.org/2000/svg" width="32" height="32" viewBox="0 0 32 32" fill="none">
  <path d="M13.3745 4.36196C14.4474 2.10168 17.5474 2.10167 18.6203 4.36196L20.4746 8.26832C20.9006 9.16588 21.7242 9.788 22.6769 9.93193L26.8232 10.5583C29.2223 10.9208 30.1802 13.9861 28.4442 15.7455L25.444 18.7862C24.7546 19.4849 24.44 20.4915 24.6027 21.478L25.311 25.7715C25.7208 28.2558 23.2129 30.1503 21.067 28.9773L17.3585 26.9502C16.5064 26.4845 15.4884 26.4845 14.6363 26.9502L10.9277 28.9773C8.78192 30.1503 6.27396 28.2558 6.68378 25.7715L7.39205 21.478C7.55479 20.4915 7.24021 19.4849 6.55084 18.7862L3.55056 15.7455C1.81455 13.9861 2.7725 10.9208 5.17161 10.5583L9.31789 9.93193C10.2706 9.788 11.0942 9.16588 11.5202 8.26832L13.3745 4.36196Z" stroke="white" stroke-width="3" stroke-linejoin="round"/>
</svg>