<svg xmlns="http://www.w3.org/2000/svg" width="24" height="24" viewBox="0 0 24 24" fill="none">
  <path fill-rule="evenodd" clip-rule="evenodd" d="M3.5 7.23474C2.67157 7.23474 2 6.56317 2 5.73474V3.5C2 2.67157 2.67157 2 3.5 2H20.5C21.3284 2 22 2.67157 22 3.5V5.73474C22 6.56317 21.3284 7.23474 20.5 7.23474H15.275C14.9989 7.23474 14.775 7.4586 14.775 7.73474V20.5C14.775 21.3284 14.1035 22 13.275 22H10.7482C9.91976 22 9.24819 21.3284 9.24819 20.5V7.73474C9.24819 7.4586 9.02433 7.23474 8.74819 7.23474H3.5ZM9.2344 5.73239C10.0628 5.73239 10.7344 6.40397 10.7344 7.23239V19.9977C10.7344 20.2738 10.9583 20.4977 11.2344 20.4977H12.7888C13.065 20.4977 13.2888 20.2738 13.2888 19.9977V7.23239C13.2888 6.40397 13.9604 5.73239 14.7888 5.73239H20C20.2761 5.73239 20.5 5.50854 20.5 5.23239V4.00235C20.5 3.72621 20.2761 3.50235 20 3.50235H4C3.72386 3.50235 3.5 3.72621 3.5 4.00235V5.23239C3.5 5.50854 3.72386 5.73239 4 5.73239H9.2344Z" fill="#1A1A1A"/>
</svg>