<svg xmlns="http://www.w3.org/2000/svg" width="16" height="16" viewBox="0 0 16 16" fill="none">
  <path d="M4.0026 5.33333H2.66927C1.93289 5.33333 1.33594 5.93029 1.33594 6.66667V12.6667C1.33594 13.403 1.93289 14 2.66927 14H4.0026C4.73898 14 5.33594 13.403 5.33594 12.6667V6.66667C5.33594 5.93029 4.73898 5.33333 4.0026 5.33333Z" stroke="#999999" stroke-width="1.5" stroke-linecap="round" stroke-linejoin="round"/>
  <path d="M10.5872 14H8.14334C7.61687 14 7.10219 13.8442 6.66414 13.5521L5.6328 12.8646C5.44734 12.7409 5.33594 12.5328 5.33594 12.3099V6.84371C5.33594 6.72769 5.36621 6.61368 5.42378 6.51295L8.0026 2H8.88841C10.2196 2 11.0136 3.48357 10.2752 4.59117L9.33594 6H12.9616C13.829 6 14.4655 6.81518 14.2551 7.65671L13.1742 11.9801C12.8775 13.1672 11.8108 14 10.5872 14Z" stroke="#999999" stroke-width="1.5" stroke-linecap="round" stroke-linejoin="round"/>
</svg>